M48
; DRILL file {KiCad (5.1.9-0-10_14)} date Friday, October 22, 2021 at 03:00:31 PM
; FORMAT={3:3/ absolute / metric / suppress leading zeros}
; #@! TF.CreationDate,2021-10-22T15:00:31+02:00
; #@! TF.GenerationSoftware,Kicad,Pcbnew,(5.1.9-0-10_14)
FMAT,2
METRIC,TZ
T1C0.400
T2C0.650
T3C0.991
%
G90
G05
T1
X20475Y-27600
X20800Y-31500
X21100Y-26900
X21700Y-31500
X21900Y-26200
X22400Y-40000
X24000Y-43200
X24100Y-21900
X24554Y-40646
X25400Y-41600
X25700Y-42500
X26700Y-42800
X28025Y-35525
X28694Y-26300
X28943Y-33851
X29300Y-34900
X29400Y-41800
X29600Y-26500
X30000Y-37700
X30100Y-29800
X30350Y-35250
X30700Y-42200
X30934Y-28922
X31300Y-30900
X31400Y-41200
X32284Y-23797
X32394Y-38197
X32797Y-26751
X33300Y-29200
X33500Y-24275
X34000Y-37900
X34000Y-41300
X34800Y-23900
X34950Y-22650
X34950Y-31492
X34950Y-32492
X35100Y-30600
X35300Y-20900
X35300Y-25900
X35800Y-23700
X35883Y-40941
X36000Y-37900
X36000Y-39900
X36100Y-36200
X36900Y-26100
X37300Y-42500
X38000Y-31900
X38100Y-22000
X38400Y-28400
X38900Y-40400
X39100Y-32200
X39300Y-37900
X39700Y-21200
X40447Y-29266
X41600Y-38400
X41600Y-39500
X42800Y-24000
X43200Y-28000
X43525Y-29300
T2
X22500Y-36900
X23770Y-36900
X41330Y-34100
X42600Y-34100
T3
X40949Y-32610
X41965Y-27530
X42981Y-32610
T0
M30
