G04 #@! TF.GenerationSoftware,KiCad,Pcbnew,(5.1.9-0-10_14)*
G04 #@! TF.CreationDate,2021-10-22T14:59:34+02:00*
G04 #@! TF.ProjectId,TFRAS_TOP,54465241-535f-4544-9f50-2e6b69636164,rev?*
G04 #@! TF.SameCoordinates,Original*
G04 #@! TF.FileFunction,Soldermask,Bot*
G04 #@! TF.FilePolarity,Negative*
%FSLAX46Y46*%
G04 Gerber Fmt 4.6, Leading zero omitted, Abs format (unit mm)*
G04 Created by KiCad (PCBNEW (5.1.9-0-10_14)) date 2021-10-22 14:59:34*
%MOMM*%
%LPD*%
G01*
G04 APERTURE LIST*
%ADD10R,0.240000X0.900000*%
%ADD11R,0.900000X0.240000*%
%ADD12O,1.000000X1.000000*%
%ADD13R,1.000000X1.000000*%
%ADD14R,1.500000X2.000000*%
%ADD15R,3.800000X2.000000*%
%ADD16C,0.990600*%
G04 APERTURE END LIST*
G36*
G01*
X34900000Y-43250001D02*
X34900000Y-42349999D01*
G75*
G02*
X35149999Y-42100000I249999J0D01*
G01*
X35675001Y-42100000D01*
G75*
G02*
X35925000Y-42349999I0J-249999D01*
G01*
X35925000Y-43250001D01*
G75*
G02*
X35675001Y-43500000I-249999J0D01*
G01*
X35149999Y-43500000D01*
G75*
G02*
X34900000Y-43250001I0J249999D01*
G01*
G37*
G36*
G01*
X33075000Y-43250001D02*
X33075000Y-42349999D01*
G75*
G02*
X33324999Y-42100000I249999J0D01*
G01*
X33850001Y-42100000D01*
G75*
G02*
X34100000Y-42349999I0J-249999D01*
G01*
X34100000Y-43250001D01*
G75*
G02*
X33850001Y-43500000I-249999J0D01*
G01*
X33324999Y-43500000D01*
G75*
G02*
X33075000Y-43250001I0J249999D01*
G01*
G37*
G36*
G01*
X42212500Y-25850001D02*
X42212500Y-24949999D01*
G75*
G02*
X42462499Y-24700000I249999J0D01*
G01*
X42987501Y-24700000D01*
G75*
G02*
X43237500Y-24949999I0J-249999D01*
G01*
X43237500Y-25850001D01*
G75*
G02*
X42987501Y-26100000I-249999J0D01*
G01*
X42462499Y-26100000D01*
G75*
G02*
X42212500Y-25850001I0J249999D01*
G01*
G37*
G36*
G01*
X40387500Y-25850001D02*
X40387500Y-24949999D01*
G75*
G02*
X40637499Y-24700000I249999J0D01*
G01*
X41162501Y-24700000D01*
G75*
G02*
X41412500Y-24949999I0J-249999D01*
G01*
X41412500Y-25850001D01*
G75*
G02*
X41162501Y-26100000I-249999J0D01*
G01*
X40637499Y-26100000D01*
G75*
G02*
X40387500Y-25850001I0J249999D01*
G01*
G37*
G36*
G01*
X22012500Y-28800000D02*
X22012500Y-29000000D01*
G75*
G02*
X21912500Y-29100000I-100000J0D01*
G01*
X20487500Y-29100000D01*
G75*
G02*
X20387500Y-29000000I0J100000D01*
G01*
X20387500Y-28800000D01*
G75*
G02*
X20487500Y-28700000I100000J0D01*
G01*
X21912500Y-28700000D01*
G75*
G02*
X22012500Y-28800000I0J-100000D01*
G01*
G37*
G36*
G01*
X22012500Y-29450000D02*
X22012500Y-29650000D01*
G75*
G02*
X21912500Y-29750000I-100000J0D01*
G01*
X20487500Y-29750000D01*
G75*
G02*
X20387500Y-29650000I0J100000D01*
G01*
X20387500Y-29450000D01*
G75*
G02*
X20487500Y-29350000I100000J0D01*
G01*
X21912500Y-29350000D01*
G75*
G02*
X22012500Y-29450000I0J-100000D01*
G01*
G37*
G36*
G01*
X22012500Y-30100000D02*
X22012500Y-30300000D01*
G75*
G02*
X21912500Y-30400000I-100000J0D01*
G01*
X20487500Y-30400000D01*
G75*
G02*
X20387500Y-30300000I0J100000D01*
G01*
X20387500Y-30100000D01*
G75*
G02*
X20487500Y-30000000I100000J0D01*
G01*
X21912500Y-30000000D01*
G75*
G02*
X22012500Y-30100000I0J-100000D01*
G01*
G37*
G36*
G01*
X22012500Y-30750000D02*
X22012500Y-30950000D01*
G75*
G02*
X21912500Y-31050000I-100000J0D01*
G01*
X20487500Y-31050000D01*
G75*
G02*
X20387500Y-30950000I0J100000D01*
G01*
X20387500Y-30750000D01*
G75*
G02*
X20487500Y-30650000I100000J0D01*
G01*
X21912500Y-30650000D01*
G75*
G02*
X22012500Y-30750000I0J-100000D01*
G01*
G37*
G36*
G01*
X26237500Y-30750000D02*
X26237500Y-30950000D01*
G75*
G02*
X26137500Y-31050000I-100000J0D01*
G01*
X24712500Y-31050000D01*
G75*
G02*
X24612500Y-30950000I0J100000D01*
G01*
X24612500Y-30750000D01*
G75*
G02*
X24712500Y-30650000I100000J0D01*
G01*
X26137500Y-30650000D01*
G75*
G02*
X26237500Y-30750000I0J-100000D01*
G01*
G37*
G36*
G01*
X26237500Y-30100000D02*
X26237500Y-30300000D01*
G75*
G02*
X26137500Y-30400000I-100000J0D01*
G01*
X24712500Y-30400000D01*
G75*
G02*
X24612500Y-30300000I0J100000D01*
G01*
X24612500Y-30100000D01*
G75*
G02*
X24712500Y-30000000I100000J0D01*
G01*
X26137500Y-30000000D01*
G75*
G02*
X26237500Y-30100000I0J-100000D01*
G01*
G37*
G36*
G01*
X26237500Y-29450000D02*
X26237500Y-29650000D01*
G75*
G02*
X26137500Y-29750000I-100000J0D01*
G01*
X24712500Y-29750000D01*
G75*
G02*
X24612500Y-29650000I0J100000D01*
G01*
X24612500Y-29450000D01*
G75*
G02*
X24712500Y-29350000I100000J0D01*
G01*
X26137500Y-29350000D01*
G75*
G02*
X26237500Y-29450000I0J-100000D01*
G01*
G37*
G36*
G01*
X26237500Y-28800000D02*
X26237500Y-29000000D01*
G75*
G02*
X26137500Y-29100000I-100000J0D01*
G01*
X24712500Y-29100000D01*
G75*
G02*
X24612500Y-29000000I0J100000D01*
G01*
X24612500Y-28800000D01*
G75*
G02*
X24712500Y-28700000I100000J0D01*
G01*
X26137500Y-28700000D01*
G75*
G02*
X26237500Y-28800000I0J-100000D01*
G01*
G37*
D10*
X36450000Y-23700000D03*
X36950000Y-23700000D03*
X37450000Y-23700000D03*
X37950000Y-23700000D03*
X38450000Y-23700000D03*
X38950000Y-23700000D03*
X38950000Y-21100000D03*
X38450000Y-21100000D03*
X37950000Y-21100000D03*
X37450000Y-21100000D03*
X36950000Y-21100000D03*
X36450000Y-21100000D03*
D11*
X35900000Y-22650000D03*
X39500000Y-22650000D03*
X39500000Y-22150000D03*
X35900000Y-22150000D03*
D12*
X42600000Y-34100000D03*
D13*
X41330000Y-34100000D03*
D12*
X22500000Y-36900000D03*
D13*
X23770000Y-36900000D03*
D10*
X29950000Y-40200000D03*
X29450000Y-40200000D03*
X28950000Y-40200000D03*
X28450000Y-40200000D03*
X27950000Y-40200000D03*
X27450000Y-40200000D03*
X27450000Y-42800000D03*
X27950000Y-42800000D03*
X28450000Y-42800000D03*
X28950000Y-42800000D03*
X29450000Y-42800000D03*
X29950000Y-42800000D03*
D11*
X30500000Y-41250000D03*
X26900000Y-41250000D03*
X26900000Y-41750000D03*
X30500000Y-41750000D03*
G36*
G01*
X25925001Y-33200000D02*
X24674999Y-33200000D01*
G75*
G02*
X24425000Y-32950001I0J249999D01*
G01*
X24425000Y-32324999D01*
G75*
G02*
X24674999Y-32075000I249999J0D01*
G01*
X25925001Y-32075000D01*
G75*
G02*
X26175000Y-32324999I0J-249999D01*
G01*
X26175000Y-32950001D01*
G75*
G02*
X25925001Y-33200000I-249999J0D01*
G01*
G37*
G36*
G01*
X25925001Y-36125000D02*
X24674999Y-36125000D01*
G75*
G02*
X24425000Y-35875001I0J249999D01*
G01*
X24425000Y-35249999D01*
G75*
G02*
X24674999Y-35000000I249999J0D01*
G01*
X25925001Y-35000000D01*
G75*
G02*
X26175000Y-35249999I0J-249999D01*
G01*
X26175000Y-35875001D01*
G75*
G02*
X25925001Y-36125000I-249999J0D01*
G01*
G37*
G36*
G01*
X21925001Y-33162500D02*
X20674999Y-33162500D01*
G75*
G02*
X20425000Y-32912501I0J249999D01*
G01*
X20425000Y-32287499D01*
G75*
G02*
X20674999Y-32037500I249999J0D01*
G01*
X21925001Y-32037500D01*
G75*
G02*
X22175000Y-32287499I0J-249999D01*
G01*
X22175000Y-32912501D01*
G75*
G02*
X21925001Y-33162500I-249999J0D01*
G01*
G37*
G36*
G01*
X21925001Y-36087500D02*
X20674999Y-36087500D01*
G75*
G02*
X20425000Y-35837501I0J249999D01*
G01*
X20425000Y-35212499D01*
G75*
G02*
X20674999Y-34962500I249999J0D01*
G01*
X21925001Y-34962500D01*
G75*
G02*
X22175000Y-35212499I0J-249999D01*
G01*
X22175000Y-35837501D01*
G75*
G02*
X21925001Y-36087500I-249999J0D01*
G01*
G37*
G36*
G01*
X38525000Y-34350001D02*
X38525000Y-33049999D01*
G75*
G02*
X38774999Y-32800000I249999J0D01*
G01*
X39425001Y-32800000D01*
G75*
G02*
X39675000Y-33049999I0J-249999D01*
G01*
X39675000Y-34350001D01*
G75*
G02*
X39425001Y-34600000I-249999J0D01*
G01*
X38774999Y-34600000D01*
G75*
G02*
X38525000Y-34350001I0J249999D01*
G01*
G37*
G36*
G01*
X35575000Y-34350001D02*
X35575000Y-33049999D01*
G75*
G02*
X35824999Y-32800000I249999J0D01*
G01*
X36475001Y-32800000D01*
G75*
G02*
X36725000Y-33049999I0J-249999D01*
G01*
X36725000Y-34350001D01*
G75*
G02*
X36475001Y-34600000I-249999J0D01*
G01*
X35824999Y-34600000D01*
G75*
G02*
X35575000Y-34350001I0J249999D01*
G01*
G37*
G36*
G01*
X40500000Y-30049999D02*
X40500000Y-31350001D01*
G75*
G02*
X40250001Y-31600000I-249999J0D01*
G01*
X39599999Y-31600000D01*
G75*
G02*
X39350000Y-31350001I0J249999D01*
G01*
X39350000Y-30049999D01*
G75*
G02*
X39599999Y-29800000I249999J0D01*
G01*
X40250001Y-29800000D01*
G75*
G02*
X40500000Y-30049999I0J-249999D01*
G01*
G37*
G36*
G01*
X43450000Y-30049999D02*
X43450000Y-31350001D01*
G75*
G02*
X43200001Y-31600000I-249999J0D01*
G01*
X42549999Y-31600000D01*
G75*
G02*
X42300000Y-31350001I0J249999D01*
G01*
X42300000Y-30049999D01*
G75*
G02*
X42549999Y-29800000I249999J0D01*
G01*
X43200001Y-29800000D01*
G75*
G02*
X43450000Y-30049999I0J-249999D01*
G01*
G37*
D14*
X38000000Y-36350000D03*
X42600000Y-36350000D03*
X40300000Y-36350000D03*
D15*
X40300000Y-42650000D03*
G36*
G01*
X32500000Y-41030000D02*
X32500000Y-41370000D01*
G75*
G02*
X32360000Y-41510000I-140000J0D01*
G01*
X32080000Y-41510000D01*
G75*
G02*
X31940000Y-41370000I0J140000D01*
G01*
X31940000Y-41030000D01*
G75*
G02*
X32080000Y-40890000I140000J0D01*
G01*
X32360000Y-40890000D01*
G75*
G02*
X32500000Y-41030000I0J-140000D01*
G01*
G37*
G36*
G01*
X33460000Y-41030000D02*
X33460000Y-41370000D01*
G75*
G02*
X33320000Y-41510000I-140000J0D01*
G01*
X33040000Y-41510000D01*
G75*
G02*
X32900000Y-41370000I0J140000D01*
G01*
X32900000Y-41030000D01*
G75*
G02*
X33040000Y-40890000I140000J0D01*
G01*
X33320000Y-40890000D01*
G75*
G02*
X33460000Y-41030000I0J-140000D01*
G01*
G37*
D13*
X31100000Y-29900000D03*
G36*
G01*
X33920000Y-22470000D02*
X33920000Y-22130000D01*
G75*
G02*
X34060000Y-21990000I140000J0D01*
G01*
X34340000Y-21990000D01*
G75*
G02*
X34480000Y-22130000I0J-140000D01*
G01*
X34480000Y-22470000D01*
G75*
G02*
X34340000Y-22610000I-140000J0D01*
G01*
X34060000Y-22610000D01*
G75*
G02*
X33920000Y-22470000I0J140000D01*
G01*
G37*
G36*
G01*
X32960000Y-22470000D02*
X32960000Y-22130000D01*
G75*
G02*
X33100000Y-21990000I140000J0D01*
G01*
X33380000Y-21990000D01*
G75*
G02*
X33520000Y-22130000I0J-140000D01*
G01*
X33520000Y-22470000D01*
G75*
G02*
X33380000Y-22610000I-140000J0D01*
G01*
X33100000Y-22610000D01*
G75*
G02*
X32960000Y-22470000I0J140000D01*
G01*
G37*
G36*
G01*
X32150000Y-34843750D02*
X32150000Y-35356250D01*
G75*
G02*
X31931250Y-35575000I-218750J0D01*
G01*
X31493750Y-35575000D01*
G75*
G02*
X31275000Y-35356250I0J218750D01*
G01*
X31275000Y-34843750D01*
G75*
G02*
X31493750Y-34625000I218750J0D01*
G01*
X31931250Y-34625000D01*
G75*
G02*
X32150000Y-34843750I0J-218750D01*
G01*
G37*
G36*
G01*
X33725000Y-34843750D02*
X33725000Y-35356250D01*
G75*
G02*
X33506250Y-35575000I-218750J0D01*
G01*
X33068750Y-35575000D01*
G75*
G02*
X32850000Y-35356250I0J218750D01*
G01*
X32850000Y-34843750D01*
G75*
G02*
X33068750Y-34625000I218750J0D01*
G01*
X33506250Y-34625000D01*
G75*
G02*
X33725000Y-34843750I0J-218750D01*
G01*
G37*
G36*
G01*
X32320000Y-25730000D02*
X32320000Y-26070000D01*
G75*
G02*
X32180000Y-26210000I-140000J0D01*
G01*
X31900000Y-26210000D01*
G75*
G02*
X31760000Y-26070000I0J140000D01*
G01*
X31760000Y-25730000D01*
G75*
G02*
X31900000Y-25590000I140000J0D01*
G01*
X32180000Y-25590000D01*
G75*
G02*
X32320000Y-25730000I0J-140000D01*
G01*
G37*
G36*
G01*
X33280000Y-25730000D02*
X33280000Y-26070000D01*
G75*
G02*
X33140000Y-26210000I-140000J0D01*
G01*
X32860000Y-26210000D01*
G75*
G02*
X32720000Y-26070000I0J140000D01*
G01*
X32720000Y-25730000D01*
G75*
G02*
X32860000Y-25590000I140000J0D01*
G01*
X33140000Y-25590000D01*
G75*
G02*
X33280000Y-25730000I0J-140000D01*
G01*
G37*
G36*
G01*
X28730000Y-36700000D02*
X29070000Y-36700000D01*
G75*
G02*
X29210000Y-36840000I0J-140000D01*
G01*
X29210000Y-37120000D01*
G75*
G02*
X29070000Y-37260000I-140000J0D01*
G01*
X28730000Y-37260000D01*
G75*
G02*
X28590000Y-37120000I0J140000D01*
G01*
X28590000Y-36840000D01*
G75*
G02*
X28730000Y-36700000I140000J0D01*
G01*
G37*
G36*
G01*
X28730000Y-35740000D02*
X29070000Y-35740000D01*
G75*
G02*
X29210000Y-35880000I0J-140000D01*
G01*
X29210000Y-36160000D01*
G75*
G02*
X29070000Y-36300000I-140000J0D01*
G01*
X28730000Y-36300000D01*
G75*
G02*
X28590000Y-36160000I0J140000D01*
G01*
X28590000Y-35880000D01*
G75*
G02*
X28730000Y-35740000I140000J0D01*
G01*
G37*
D16*
X41965000Y-27530000D03*
X40949000Y-32610000D03*
X42981000Y-32610000D03*
G36*
G01*
X22340000Y-27430000D02*
X22340000Y-27770000D01*
G75*
G02*
X22200000Y-27910000I-140000J0D01*
G01*
X21920000Y-27910000D01*
G75*
G02*
X21780000Y-27770000I0J140000D01*
G01*
X21780000Y-27430000D01*
G75*
G02*
X21920000Y-27290000I140000J0D01*
G01*
X22200000Y-27290000D01*
G75*
G02*
X22340000Y-27430000I0J-140000D01*
G01*
G37*
G36*
G01*
X21380000Y-27430000D02*
X21380000Y-27770000D01*
G75*
G02*
X21240000Y-27910000I-140000J0D01*
G01*
X20960000Y-27910000D01*
G75*
G02*
X20820000Y-27770000I0J140000D01*
G01*
X20820000Y-27430000D01*
G75*
G02*
X20960000Y-27290000I140000J0D01*
G01*
X21240000Y-27290000D01*
G75*
G02*
X21380000Y-27430000I0J-140000D01*
G01*
G37*
M02*
