G04 #@! TF.GenerationSoftware,KiCad,Pcbnew,(5.1.9-0-10_14)*
G04 #@! TF.CreationDate,2021-10-22T14:59:34+02:00*
G04 #@! TF.ProjectId,TFRAS_TOP,54465241-535f-4544-9f50-2e6b69636164,rev?*
G04 #@! TF.SameCoordinates,Original*
G04 #@! TF.FileFunction,Copper,L4,Bot*
G04 #@! TF.FilePolarity,Positive*
%FSLAX46Y46*%
G04 Gerber Fmt 4.6, Leading zero omitted, Abs format (unit mm)*
G04 Created by KiCad (PCBNEW (5.1.9-0-10_14)) date 2021-10-22 14:59:34*
%MOMM*%
%LPD*%
G01*
G04 APERTURE LIST*
G04 #@! TA.AperFunction,SMDPad,CuDef*
%ADD10R,0.240000X0.900000*%
G04 #@! TD*
G04 #@! TA.AperFunction,SMDPad,CuDef*
%ADD11R,0.900000X0.240000*%
G04 #@! TD*
G04 #@! TA.AperFunction,ComponentPad*
%ADD12O,1.000000X1.000000*%
G04 #@! TD*
G04 #@! TA.AperFunction,ComponentPad*
%ADD13R,1.000000X1.000000*%
G04 #@! TD*
G04 #@! TA.AperFunction,SMDPad,CuDef*
%ADD14R,1.500000X2.000000*%
G04 #@! TD*
G04 #@! TA.AperFunction,SMDPad,CuDef*
%ADD15R,3.800000X2.000000*%
G04 #@! TD*
G04 #@! TA.AperFunction,SMDPad,CuDef*
%ADD16R,1.000000X1.000000*%
G04 #@! TD*
G04 #@! TA.AperFunction,ViaPad*
%ADD17C,0.600000*%
G04 #@! TD*
G04 #@! TA.AperFunction,Conductor*
%ADD18C,0.500000*%
G04 #@! TD*
G04 #@! TA.AperFunction,Conductor*
%ADD19C,0.250000*%
G04 #@! TD*
G04 #@! TA.AperFunction,Conductor*
%ADD20C,0.254000*%
G04 #@! TD*
G04 #@! TA.AperFunction,Conductor*
%ADD21C,0.100000*%
G04 #@! TD*
G04 APERTURE END LIST*
G04 #@! TA.AperFunction,SMDPad,CuDef*
G36*
G01*
X34900000Y-43250001D02*
X34900000Y-42349999D01*
G75*
G02*
X35149999Y-42100000I249999J0D01*
G01*
X35675001Y-42100000D01*
G75*
G02*
X35925000Y-42349999I0J-249999D01*
G01*
X35925000Y-43250001D01*
G75*
G02*
X35675001Y-43500000I-249999J0D01*
G01*
X35149999Y-43500000D01*
G75*
G02*
X34900000Y-43250001I0J249999D01*
G01*
G37*
G04 #@! TD.AperFunction*
G04 #@! TA.AperFunction,SMDPad,CuDef*
G36*
G01*
X33075000Y-43250001D02*
X33075000Y-42349999D01*
G75*
G02*
X33324999Y-42100000I249999J0D01*
G01*
X33850001Y-42100000D01*
G75*
G02*
X34100000Y-42349999I0J-249999D01*
G01*
X34100000Y-43250001D01*
G75*
G02*
X33850001Y-43500000I-249999J0D01*
G01*
X33324999Y-43500000D01*
G75*
G02*
X33075000Y-43250001I0J249999D01*
G01*
G37*
G04 #@! TD.AperFunction*
G04 #@! TA.AperFunction,SMDPad,CuDef*
G36*
G01*
X42212500Y-25850001D02*
X42212500Y-24949999D01*
G75*
G02*
X42462499Y-24700000I249999J0D01*
G01*
X42987501Y-24700000D01*
G75*
G02*
X43237500Y-24949999I0J-249999D01*
G01*
X43237500Y-25850001D01*
G75*
G02*
X42987501Y-26100000I-249999J0D01*
G01*
X42462499Y-26100000D01*
G75*
G02*
X42212500Y-25850001I0J249999D01*
G01*
G37*
G04 #@! TD.AperFunction*
G04 #@! TA.AperFunction,SMDPad,CuDef*
G36*
G01*
X40387500Y-25850001D02*
X40387500Y-24949999D01*
G75*
G02*
X40637499Y-24700000I249999J0D01*
G01*
X41162501Y-24700000D01*
G75*
G02*
X41412500Y-24949999I0J-249999D01*
G01*
X41412500Y-25850001D01*
G75*
G02*
X41162501Y-26100000I-249999J0D01*
G01*
X40637499Y-26100000D01*
G75*
G02*
X40387500Y-25850001I0J249999D01*
G01*
G37*
G04 #@! TD.AperFunction*
G04 #@! TA.AperFunction,SMDPad,CuDef*
G36*
G01*
X22012500Y-28800000D02*
X22012500Y-29000000D01*
G75*
G02*
X21912500Y-29100000I-100000J0D01*
G01*
X20487500Y-29100000D01*
G75*
G02*
X20387500Y-29000000I0J100000D01*
G01*
X20387500Y-28800000D01*
G75*
G02*
X20487500Y-28700000I100000J0D01*
G01*
X21912500Y-28700000D01*
G75*
G02*
X22012500Y-28800000I0J-100000D01*
G01*
G37*
G04 #@! TD.AperFunction*
G04 #@! TA.AperFunction,SMDPad,CuDef*
G36*
G01*
X22012500Y-29450000D02*
X22012500Y-29650000D01*
G75*
G02*
X21912500Y-29750000I-100000J0D01*
G01*
X20487500Y-29750000D01*
G75*
G02*
X20387500Y-29650000I0J100000D01*
G01*
X20387500Y-29450000D01*
G75*
G02*
X20487500Y-29350000I100000J0D01*
G01*
X21912500Y-29350000D01*
G75*
G02*
X22012500Y-29450000I0J-100000D01*
G01*
G37*
G04 #@! TD.AperFunction*
G04 #@! TA.AperFunction,SMDPad,CuDef*
G36*
G01*
X22012500Y-30100000D02*
X22012500Y-30300000D01*
G75*
G02*
X21912500Y-30400000I-100000J0D01*
G01*
X20487500Y-30400000D01*
G75*
G02*
X20387500Y-30300000I0J100000D01*
G01*
X20387500Y-30100000D01*
G75*
G02*
X20487500Y-30000000I100000J0D01*
G01*
X21912500Y-30000000D01*
G75*
G02*
X22012500Y-30100000I0J-100000D01*
G01*
G37*
G04 #@! TD.AperFunction*
G04 #@! TA.AperFunction,SMDPad,CuDef*
G36*
G01*
X22012500Y-30750000D02*
X22012500Y-30950000D01*
G75*
G02*
X21912500Y-31050000I-100000J0D01*
G01*
X20487500Y-31050000D01*
G75*
G02*
X20387500Y-30950000I0J100000D01*
G01*
X20387500Y-30750000D01*
G75*
G02*
X20487500Y-30650000I100000J0D01*
G01*
X21912500Y-30650000D01*
G75*
G02*
X22012500Y-30750000I0J-100000D01*
G01*
G37*
G04 #@! TD.AperFunction*
G04 #@! TA.AperFunction,SMDPad,CuDef*
G36*
G01*
X26237500Y-30750000D02*
X26237500Y-30950000D01*
G75*
G02*
X26137500Y-31050000I-100000J0D01*
G01*
X24712500Y-31050000D01*
G75*
G02*
X24612500Y-30950000I0J100000D01*
G01*
X24612500Y-30750000D01*
G75*
G02*
X24712500Y-30650000I100000J0D01*
G01*
X26137500Y-30650000D01*
G75*
G02*
X26237500Y-30750000I0J-100000D01*
G01*
G37*
G04 #@! TD.AperFunction*
G04 #@! TA.AperFunction,SMDPad,CuDef*
G36*
G01*
X26237500Y-30100000D02*
X26237500Y-30300000D01*
G75*
G02*
X26137500Y-30400000I-100000J0D01*
G01*
X24712500Y-30400000D01*
G75*
G02*
X24612500Y-30300000I0J100000D01*
G01*
X24612500Y-30100000D01*
G75*
G02*
X24712500Y-30000000I100000J0D01*
G01*
X26137500Y-30000000D01*
G75*
G02*
X26237500Y-30100000I0J-100000D01*
G01*
G37*
G04 #@! TD.AperFunction*
G04 #@! TA.AperFunction,SMDPad,CuDef*
G36*
G01*
X26237500Y-29450000D02*
X26237500Y-29650000D01*
G75*
G02*
X26137500Y-29750000I-100000J0D01*
G01*
X24712500Y-29750000D01*
G75*
G02*
X24612500Y-29650000I0J100000D01*
G01*
X24612500Y-29450000D01*
G75*
G02*
X24712500Y-29350000I100000J0D01*
G01*
X26137500Y-29350000D01*
G75*
G02*
X26237500Y-29450000I0J-100000D01*
G01*
G37*
G04 #@! TD.AperFunction*
G04 #@! TA.AperFunction,SMDPad,CuDef*
G36*
G01*
X26237500Y-28800000D02*
X26237500Y-29000000D01*
G75*
G02*
X26137500Y-29100000I-100000J0D01*
G01*
X24712500Y-29100000D01*
G75*
G02*
X24612500Y-29000000I0J100000D01*
G01*
X24612500Y-28800000D01*
G75*
G02*
X24712500Y-28700000I100000J0D01*
G01*
X26137500Y-28700000D01*
G75*
G02*
X26237500Y-28800000I0J-100000D01*
G01*
G37*
G04 #@! TD.AperFunction*
D10*
X36450000Y-23700000D03*
X36950000Y-23700000D03*
X37450000Y-23700000D03*
X37950000Y-23700000D03*
X38450000Y-23700000D03*
X38950000Y-23700000D03*
X38950000Y-21100000D03*
X38450000Y-21100000D03*
X37950000Y-21100000D03*
X37450000Y-21100000D03*
X36950000Y-21100000D03*
X36450000Y-21100000D03*
D11*
X35900000Y-22650000D03*
X39500000Y-22650000D03*
X39500000Y-22150000D03*
X35900000Y-22150000D03*
D12*
X42600000Y-34100000D03*
D13*
X41330000Y-34100000D03*
D12*
X22500000Y-36900000D03*
D13*
X23770000Y-36900000D03*
D10*
X29950000Y-40200000D03*
X29450000Y-40200000D03*
X28950000Y-40200000D03*
X28450000Y-40200000D03*
X27950000Y-40200000D03*
X27450000Y-40200000D03*
X27450000Y-42800000D03*
X27950000Y-42800000D03*
X28450000Y-42800000D03*
X28950000Y-42800000D03*
X29450000Y-42800000D03*
X29950000Y-42800000D03*
D11*
X30500000Y-41250000D03*
X26900000Y-41250000D03*
X26900000Y-41750000D03*
X30500000Y-41750000D03*
G04 #@! TA.AperFunction,SMDPad,CuDef*
G36*
G01*
X25925001Y-33200000D02*
X24674999Y-33200000D01*
G75*
G02*
X24425000Y-32950001I0J249999D01*
G01*
X24425000Y-32324999D01*
G75*
G02*
X24674999Y-32075000I249999J0D01*
G01*
X25925001Y-32075000D01*
G75*
G02*
X26175000Y-32324999I0J-249999D01*
G01*
X26175000Y-32950001D01*
G75*
G02*
X25925001Y-33200000I-249999J0D01*
G01*
G37*
G04 #@! TD.AperFunction*
G04 #@! TA.AperFunction,SMDPad,CuDef*
G36*
G01*
X25925001Y-36125000D02*
X24674999Y-36125000D01*
G75*
G02*
X24425000Y-35875001I0J249999D01*
G01*
X24425000Y-35249999D01*
G75*
G02*
X24674999Y-35000000I249999J0D01*
G01*
X25925001Y-35000000D01*
G75*
G02*
X26175000Y-35249999I0J-249999D01*
G01*
X26175000Y-35875001D01*
G75*
G02*
X25925001Y-36125000I-249999J0D01*
G01*
G37*
G04 #@! TD.AperFunction*
G04 #@! TA.AperFunction,SMDPad,CuDef*
G36*
G01*
X21925001Y-33162500D02*
X20674999Y-33162500D01*
G75*
G02*
X20425000Y-32912501I0J249999D01*
G01*
X20425000Y-32287499D01*
G75*
G02*
X20674999Y-32037500I249999J0D01*
G01*
X21925001Y-32037500D01*
G75*
G02*
X22175000Y-32287499I0J-249999D01*
G01*
X22175000Y-32912501D01*
G75*
G02*
X21925001Y-33162500I-249999J0D01*
G01*
G37*
G04 #@! TD.AperFunction*
G04 #@! TA.AperFunction,SMDPad,CuDef*
G36*
G01*
X21925001Y-36087500D02*
X20674999Y-36087500D01*
G75*
G02*
X20425000Y-35837501I0J249999D01*
G01*
X20425000Y-35212499D01*
G75*
G02*
X20674999Y-34962500I249999J0D01*
G01*
X21925001Y-34962500D01*
G75*
G02*
X22175000Y-35212499I0J-249999D01*
G01*
X22175000Y-35837501D01*
G75*
G02*
X21925001Y-36087500I-249999J0D01*
G01*
G37*
G04 #@! TD.AperFunction*
G04 #@! TA.AperFunction,SMDPad,CuDef*
G36*
G01*
X38525000Y-34350001D02*
X38525000Y-33049999D01*
G75*
G02*
X38774999Y-32800000I249999J0D01*
G01*
X39425001Y-32800000D01*
G75*
G02*
X39675000Y-33049999I0J-249999D01*
G01*
X39675000Y-34350001D01*
G75*
G02*
X39425001Y-34600000I-249999J0D01*
G01*
X38774999Y-34600000D01*
G75*
G02*
X38525000Y-34350001I0J249999D01*
G01*
G37*
G04 #@! TD.AperFunction*
G04 #@! TA.AperFunction,SMDPad,CuDef*
G36*
G01*
X35575000Y-34350001D02*
X35575000Y-33049999D01*
G75*
G02*
X35824999Y-32800000I249999J0D01*
G01*
X36475001Y-32800000D01*
G75*
G02*
X36725000Y-33049999I0J-249999D01*
G01*
X36725000Y-34350001D01*
G75*
G02*
X36475001Y-34600000I-249999J0D01*
G01*
X35824999Y-34600000D01*
G75*
G02*
X35575000Y-34350001I0J249999D01*
G01*
G37*
G04 #@! TD.AperFunction*
G04 #@! TA.AperFunction,SMDPad,CuDef*
G36*
G01*
X40500000Y-30049999D02*
X40500000Y-31350001D01*
G75*
G02*
X40250001Y-31600000I-249999J0D01*
G01*
X39599999Y-31600000D01*
G75*
G02*
X39350000Y-31350001I0J249999D01*
G01*
X39350000Y-30049999D01*
G75*
G02*
X39599999Y-29800000I249999J0D01*
G01*
X40250001Y-29800000D01*
G75*
G02*
X40500000Y-30049999I0J-249999D01*
G01*
G37*
G04 #@! TD.AperFunction*
G04 #@! TA.AperFunction,SMDPad,CuDef*
G36*
G01*
X43450000Y-30049999D02*
X43450000Y-31350001D01*
G75*
G02*
X43200001Y-31600000I-249999J0D01*
G01*
X42549999Y-31600000D01*
G75*
G02*
X42300000Y-31350001I0J249999D01*
G01*
X42300000Y-30049999D01*
G75*
G02*
X42549999Y-29800000I249999J0D01*
G01*
X43200001Y-29800000D01*
G75*
G02*
X43450000Y-30049999I0J-249999D01*
G01*
G37*
G04 #@! TD.AperFunction*
D14*
X38000000Y-36350000D03*
X42600000Y-36350000D03*
X40300000Y-36350000D03*
D15*
X40300000Y-42650000D03*
G04 #@! TA.AperFunction,SMDPad,CuDef*
G36*
G01*
X32500000Y-41030000D02*
X32500000Y-41370000D01*
G75*
G02*
X32360000Y-41510000I-140000J0D01*
G01*
X32080000Y-41510000D01*
G75*
G02*
X31940000Y-41370000I0J140000D01*
G01*
X31940000Y-41030000D01*
G75*
G02*
X32080000Y-40890000I140000J0D01*
G01*
X32360000Y-40890000D01*
G75*
G02*
X32500000Y-41030000I0J-140000D01*
G01*
G37*
G04 #@! TD.AperFunction*
G04 #@! TA.AperFunction,SMDPad,CuDef*
G36*
G01*
X33460000Y-41030000D02*
X33460000Y-41370000D01*
G75*
G02*
X33320000Y-41510000I-140000J0D01*
G01*
X33040000Y-41510000D01*
G75*
G02*
X32900000Y-41370000I0J140000D01*
G01*
X32900000Y-41030000D01*
G75*
G02*
X33040000Y-40890000I140000J0D01*
G01*
X33320000Y-40890000D01*
G75*
G02*
X33460000Y-41030000I0J-140000D01*
G01*
G37*
G04 #@! TD.AperFunction*
D16*
X31100000Y-29900000D03*
G04 #@! TA.AperFunction,SMDPad,CuDef*
G36*
G01*
X33920000Y-22470000D02*
X33920000Y-22130000D01*
G75*
G02*
X34060000Y-21990000I140000J0D01*
G01*
X34340000Y-21990000D01*
G75*
G02*
X34480000Y-22130000I0J-140000D01*
G01*
X34480000Y-22470000D01*
G75*
G02*
X34340000Y-22610000I-140000J0D01*
G01*
X34060000Y-22610000D01*
G75*
G02*
X33920000Y-22470000I0J140000D01*
G01*
G37*
G04 #@! TD.AperFunction*
G04 #@! TA.AperFunction,SMDPad,CuDef*
G36*
G01*
X32960000Y-22470000D02*
X32960000Y-22130000D01*
G75*
G02*
X33100000Y-21990000I140000J0D01*
G01*
X33380000Y-21990000D01*
G75*
G02*
X33520000Y-22130000I0J-140000D01*
G01*
X33520000Y-22470000D01*
G75*
G02*
X33380000Y-22610000I-140000J0D01*
G01*
X33100000Y-22610000D01*
G75*
G02*
X32960000Y-22470000I0J140000D01*
G01*
G37*
G04 #@! TD.AperFunction*
G04 #@! TA.AperFunction,SMDPad,CuDef*
G36*
G01*
X32150000Y-34843750D02*
X32150000Y-35356250D01*
G75*
G02*
X31931250Y-35575000I-218750J0D01*
G01*
X31493750Y-35575000D01*
G75*
G02*
X31275000Y-35356250I0J218750D01*
G01*
X31275000Y-34843750D01*
G75*
G02*
X31493750Y-34625000I218750J0D01*
G01*
X31931250Y-34625000D01*
G75*
G02*
X32150000Y-34843750I0J-218750D01*
G01*
G37*
G04 #@! TD.AperFunction*
G04 #@! TA.AperFunction,SMDPad,CuDef*
G36*
G01*
X33725000Y-34843750D02*
X33725000Y-35356250D01*
G75*
G02*
X33506250Y-35575000I-218750J0D01*
G01*
X33068750Y-35575000D01*
G75*
G02*
X32850000Y-35356250I0J218750D01*
G01*
X32850000Y-34843750D01*
G75*
G02*
X33068750Y-34625000I218750J0D01*
G01*
X33506250Y-34625000D01*
G75*
G02*
X33725000Y-34843750I0J-218750D01*
G01*
G37*
G04 #@! TD.AperFunction*
G04 #@! TA.AperFunction,SMDPad,CuDef*
G36*
G01*
X32320000Y-25730000D02*
X32320000Y-26070000D01*
G75*
G02*
X32180000Y-26210000I-140000J0D01*
G01*
X31900000Y-26210000D01*
G75*
G02*
X31760000Y-26070000I0J140000D01*
G01*
X31760000Y-25730000D01*
G75*
G02*
X31900000Y-25590000I140000J0D01*
G01*
X32180000Y-25590000D01*
G75*
G02*
X32320000Y-25730000I0J-140000D01*
G01*
G37*
G04 #@! TD.AperFunction*
G04 #@! TA.AperFunction,SMDPad,CuDef*
G36*
G01*
X33280000Y-25730000D02*
X33280000Y-26070000D01*
G75*
G02*
X33140000Y-26210000I-140000J0D01*
G01*
X32860000Y-26210000D01*
G75*
G02*
X32720000Y-26070000I0J140000D01*
G01*
X32720000Y-25730000D01*
G75*
G02*
X32860000Y-25590000I140000J0D01*
G01*
X33140000Y-25590000D01*
G75*
G02*
X33280000Y-25730000I0J-140000D01*
G01*
G37*
G04 #@! TD.AperFunction*
G04 #@! TA.AperFunction,SMDPad,CuDef*
G36*
G01*
X28730000Y-36700000D02*
X29070000Y-36700000D01*
G75*
G02*
X29210000Y-36840000I0J-140000D01*
G01*
X29210000Y-37120000D01*
G75*
G02*
X29070000Y-37260000I-140000J0D01*
G01*
X28730000Y-37260000D01*
G75*
G02*
X28590000Y-37120000I0J140000D01*
G01*
X28590000Y-36840000D01*
G75*
G02*
X28730000Y-36700000I140000J0D01*
G01*
G37*
G04 #@! TD.AperFunction*
G04 #@! TA.AperFunction,SMDPad,CuDef*
G36*
G01*
X28730000Y-35740000D02*
X29070000Y-35740000D01*
G75*
G02*
X29210000Y-35880000I0J-140000D01*
G01*
X29210000Y-36160000D01*
G75*
G02*
X29070000Y-36300000I-140000J0D01*
G01*
X28730000Y-36300000D01*
G75*
G02*
X28590000Y-36160000I0J140000D01*
G01*
X28590000Y-35880000D01*
G75*
G02*
X28730000Y-35740000I140000J0D01*
G01*
G37*
G04 #@! TD.AperFunction*
G04 #@! TA.AperFunction,SMDPad,CuDef*
G36*
G01*
X22340000Y-27430000D02*
X22340000Y-27770000D01*
G75*
G02*
X22200000Y-27910000I-140000J0D01*
G01*
X21920000Y-27910000D01*
G75*
G02*
X21780000Y-27770000I0J140000D01*
G01*
X21780000Y-27430000D01*
G75*
G02*
X21920000Y-27290000I140000J0D01*
G01*
X22200000Y-27290000D01*
G75*
G02*
X22340000Y-27430000I0J-140000D01*
G01*
G37*
G04 #@! TD.AperFunction*
G04 #@! TA.AperFunction,SMDPad,CuDef*
G36*
G01*
X21380000Y-27430000D02*
X21380000Y-27770000D01*
G75*
G02*
X21240000Y-27910000I-140000J0D01*
G01*
X20960000Y-27910000D01*
G75*
G02*
X20820000Y-27770000I0J140000D01*
G01*
X20820000Y-27430000D01*
G75*
G02*
X20960000Y-27290000I140000J0D01*
G01*
X21240000Y-27290000D01*
G75*
G02*
X21380000Y-27430000I0J-140000D01*
G01*
G37*
G04 #@! TD.AperFunction*
D17*
X33500489Y-24275012D03*
X34000000Y-37900000D03*
X24100000Y-21900000D03*
X39300000Y-37900000D03*
X32283536Y-23796774D03*
X21900000Y-26200000D03*
X39700000Y-21200000D03*
X30000000Y-37700000D03*
X34000000Y-41300000D03*
X26700000Y-42800000D03*
X37300000Y-42500000D03*
X38000000Y-31900000D03*
X20800000Y-31500000D03*
X21700000Y-31500000D03*
X42800000Y-24000000D03*
X41600000Y-38400000D03*
X41600000Y-39500000D03*
X38900000Y-40400000D03*
X31400000Y-41200000D03*
X43200000Y-28000000D03*
X34950000Y-22650000D03*
X20475000Y-27600000D03*
X21100000Y-26900000D03*
X39100000Y-32200000D03*
X28693754Y-26300000D03*
X24554461Y-40645539D03*
X30934101Y-28921857D03*
X31300000Y-30900000D03*
X30100000Y-29800000D03*
X43525000Y-29300000D03*
X40447416Y-29265771D03*
X32796930Y-26750874D03*
X30350000Y-35250000D03*
X29600000Y-26500000D03*
X25400000Y-41600000D03*
X35100000Y-30600000D03*
X34950010Y-31491980D03*
X34950010Y-32491891D03*
X38400000Y-28400000D03*
X35883306Y-40940878D03*
X36000000Y-39900000D03*
X36000000Y-37900000D03*
X32393523Y-38196924D03*
X30700000Y-42200000D03*
X24000000Y-43200000D03*
X29400000Y-41800000D03*
X25700000Y-42500000D03*
X22400000Y-40000000D03*
X36100000Y-36200000D03*
X28025010Y-35525002D03*
X29300000Y-34900000D03*
X28942960Y-33850732D03*
X35300000Y-20899990D03*
X35800000Y-23700000D03*
X34800000Y-23900000D03*
X35300000Y-25900000D03*
X36900000Y-26100000D03*
X38100000Y-22000000D03*
X33300000Y-29200000D03*
D18*
X42600000Y-36150000D02*
X42600000Y-34100000D01*
X42600000Y-33649998D02*
X42600000Y-34100000D01*
X42085699Y-33135697D02*
X42600000Y-33649998D01*
X42085699Y-31489301D02*
X42085699Y-33135697D01*
X42875000Y-30700000D02*
X42085699Y-31489301D01*
X39925000Y-30700000D02*
X39925000Y-32875000D01*
X41150000Y-34100000D02*
X39925000Y-32875000D01*
X41330000Y-34100000D02*
X41150000Y-34100000D01*
D19*
X38000000Y-36600000D02*
X39300000Y-37900000D01*
X38000000Y-36350000D02*
X38000000Y-36600000D01*
X38950000Y-21100000D02*
X38450000Y-21100000D01*
X39500000Y-22150000D02*
X39500000Y-21650000D01*
X27950000Y-42800000D02*
X27450000Y-42800000D01*
X22060000Y-26360000D02*
X21900000Y-26200000D01*
X22060000Y-27600000D02*
X22060000Y-26360000D01*
D18*
X39425000Y-21475000D02*
X39700000Y-21200000D01*
X39325000Y-21475000D02*
X39425000Y-21475000D01*
D19*
X39500000Y-21650000D02*
X39325000Y-21475000D01*
X39325000Y-21475000D02*
X38950000Y-21100000D01*
D18*
X29280000Y-36980000D02*
X30000000Y-37700000D01*
X28900000Y-36980000D02*
X29280000Y-36980000D01*
D19*
X33900000Y-41200000D02*
X34000000Y-41300000D01*
X33180000Y-41200000D02*
X33900000Y-41200000D01*
X26900000Y-41750000D02*
X27223882Y-41750000D01*
X27450000Y-42800000D02*
X26700000Y-42800000D01*
X26900000Y-42600000D02*
X26700000Y-42800000D01*
X26900000Y-41750000D02*
X26900000Y-42600000D01*
D18*
X40930000Y-33700000D02*
X41330000Y-34100000D01*
X39100000Y-33700000D02*
X40930000Y-33700000D01*
D19*
X21200000Y-31100000D02*
X20800000Y-31500000D01*
X21200000Y-30850000D02*
X21200000Y-31100000D01*
X21200000Y-31000000D02*
X21700000Y-31500000D01*
X21200000Y-30850000D02*
X21200000Y-31000000D01*
X37000000Y-42800000D02*
X37300000Y-42500000D01*
X35412500Y-42800000D02*
X37000000Y-42800000D01*
D18*
X38000000Y-36350000D02*
X38583884Y-36933884D01*
X38583884Y-36933884D02*
X39013553Y-36933884D01*
X40300000Y-36350000D02*
X40300000Y-36200000D01*
D19*
X40300000Y-36200000D02*
X38975010Y-34875010D01*
D18*
X38124990Y-34875010D02*
X37325010Y-34875010D01*
X37325010Y-34875010D02*
X36150000Y-33700000D01*
D19*
X38975010Y-34875010D02*
X38124990Y-34875010D01*
D18*
X40300000Y-36350000D02*
X40300000Y-37700000D01*
X41000000Y-38400000D02*
X41600000Y-38400000D01*
X40300000Y-37700000D02*
X41000000Y-38400000D01*
X40300000Y-39500000D02*
X41600000Y-39500000D01*
X40300000Y-39500000D02*
X40300000Y-36150000D01*
X40300000Y-42450000D02*
X40300000Y-40400000D01*
X40300000Y-40400000D02*
X38900000Y-40400000D01*
X40300000Y-40400000D02*
X40300000Y-39500000D01*
D19*
X31350000Y-41250000D02*
X31400000Y-41200000D01*
X30500000Y-41250000D02*
X31350000Y-41250000D01*
X32220000Y-41200000D02*
X31400000Y-41200000D01*
D18*
X34600000Y-22300000D02*
X34950000Y-22650000D01*
X34200000Y-22300000D02*
X34600000Y-22300000D01*
D19*
X35900000Y-22650000D02*
X34950000Y-22650000D01*
D18*
X33287500Y-35100000D02*
X34593750Y-33793750D01*
X34687500Y-33700000D02*
X34593750Y-33793750D01*
X36150000Y-33700000D02*
X34687500Y-33700000D01*
D19*
X21100000Y-27600000D02*
X20475000Y-27600000D01*
X21100000Y-27600000D02*
X21100000Y-26900000D01*
X21200000Y-27700000D02*
X21100000Y-27600000D01*
X21200000Y-28900000D02*
X21200000Y-27700000D01*
X28693754Y-26300000D02*
X28929169Y-26064585D01*
D18*
X23962500Y-36900000D02*
X25300000Y-35562500D01*
X23770000Y-36900000D02*
X23962500Y-36900000D01*
D19*
X22012500Y-30200000D02*
X22700000Y-30887500D01*
X21200000Y-30200000D02*
X22012500Y-30200000D01*
X22700000Y-30887500D02*
X22700000Y-31900000D01*
X22000000Y-32600000D02*
X21300000Y-32600000D01*
X22700000Y-31900000D02*
X22000000Y-32600000D01*
X22212500Y-29550000D02*
X25300000Y-32637500D01*
X21200000Y-29550000D02*
X22212500Y-29550000D01*
X25425000Y-28900000D02*
X30912244Y-28900000D01*
X30912244Y-28900000D02*
X30934101Y-28921857D01*
X26262346Y-31687346D02*
X30936918Y-31687346D01*
X31300000Y-31324264D02*
X31300000Y-30900000D01*
X30936918Y-31687346D02*
X31300000Y-31324264D01*
X25425000Y-30850000D02*
X26262346Y-31687346D01*
X25425000Y-29825000D02*
X25425000Y-29550000D01*
X25425000Y-30200000D02*
X25425000Y-29825000D01*
X25425000Y-29825000D02*
X29126276Y-29825000D01*
X30075000Y-29825000D02*
X30100000Y-29800000D01*
X29126276Y-29825000D02*
X30075000Y-29825000D01*
X40481645Y-29300000D02*
X40447416Y-29265771D01*
X43525000Y-29300000D02*
X40481645Y-29300000D01*
X31712500Y-35100000D02*
X31712500Y-34887500D01*
X29720000Y-35880000D02*
X29950000Y-35650000D01*
D18*
X29040000Y-35880000D02*
X28900000Y-36020000D01*
X29720000Y-35880000D02*
X29040000Y-35880000D01*
D19*
X30500000Y-35100000D02*
X29950000Y-35650000D01*
X31712500Y-35100000D02*
X30500000Y-35100000D01*
X33000000Y-26547804D02*
X32796930Y-26750874D01*
X33000000Y-25900000D02*
X33000000Y-26547804D01*
X21341058Y-35275000D02*
X20900000Y-35275000D01*
D18*
X21300000Y-35700000D02*
X22500000Y-36900000D01*
X21300000Y-35225000D02*
X21300000Y-35700000D01*
D19*
X36350000Y-29586799D02*
X35137275Y-30799524D01*
X35131600Y-30568400D02*
X35368400Y-30568400D01*
X35100000Y-30600000D02*
X35131600Y-30568400D01*
X36650000Y-29286799D02*
X36350000Y-29586799D01*
X38450000Y-23700000D02*
X38450000Y-25950000D01*
X36650000Y-27750000D02*
X36650000Y-29286799D01*
X38450000Y-25950000D02*
X36650000Y-27750000D01*
X35324274Y-31589864D02*
X34900010Y-31589864D01*
X36850000Y-30064138D02*
X35324274Y-31589864D01*
X37150000Y-29764138D02*
X36850000Y-30064138D01*
X38950000Y-23700000D02*
X38950000Y-26150000D01*
X37150000Y-27950000D02*
X37150000Y-29764138D01*
X38950000Y-26150000D02*
X37150000Y-27950000D01*
X35047894Y-31589864D02*
X34950010Y-31491980D01*
X35324274Y-31589864D02*
X35047894Y-31589864D01*
X37650000Y-28015700D02*
X37650000Y-30216165D01*
X35374274Y-32491891D02*
X34950010Y-32491891D01*
X39500000Y-22650000D02*
X39500000Y-26165700D01*
X37650000Y-30216165D02*
X35374274Y-32491891D01*
X39500000Y-26165700D02*
X37650000Y-28015700D01*
X36950000Y-20400000D02*
X37050000Y-20300000D01*
X40975001Y-21023999D02*
X40975001Y-24024999D01*
X40251002Y-20300000D02*
X40975001Y-21023999D01*
X37050000Y-20300000D02*
X40251002Y-20300000D01*
X36950000Y-21100000D02*
X36950000Y-20400000D01*
X40900000Y-24100000D02*
X40975001Y-24024999D01*
X40900000Y-25400000D02*
X40900000Y-24100000D01*
X40900000Y-25400000D02*
X40900000Y-25900000D01*
X40900000Y-25900000D02*
X38400000Y-28400000D01*
X35557418Y-40614990D02*
X35883306Y-40940878D01*
X30164990Y-40614990D02*
X35557418Y-40614990D01*
X29950000Y-40400000D02*
X30164990Y-40614990D01*
X29554999Y-39529999D02*
X29784998Y-39300000D01*
X29450000Y-40200000D02*
X29554999Y-40095001D01*
X29554999Y-40095001D02*
X29554999Y-39529999D01*
X29784998Y-39300000D02*
X35100000Y-39300000D01*
X35400000Y-39300000D02*
X36000000Y-39900000D01*
X35100000Y-39300000D02*
X35400000Y-39300000D01*
X28950000Y-40200000D02*
X28950000Y-39569298D01*
X29619309Y-38899989D02*
X35000011Y-38899989D01*
X28950000Y-39569298D02*
X29619309Y-38899989D01*
X35000011Y-38899989D02*
X35100011Y-38899989D01*
X36000000Y-38000000D02*
X36000000Y-37900000D01*
X35100011Y-38899989D02*
X36000000Y-38000000D01*
X32393523Y-38196924D02*
X32290447Y-38300000D01*
X32290447Y-38300000D02*
X31900000Y-38300000D01*
X31900000Y-38300000D02*
X32100000Y-38300000D01*
X28450000Y-39500000D02*
X29650000Y-38300000D01*
X29650000Y-38300000D02*
X31900000Y-38300000D01*
X28450000Y-40200000D02*
X28450000Y-39500000D01*
X30500000Y-42000000D02*
X30700000Y-42200000D01*
X30500000Y-41750000D02*
X30500000Y-42000000D01*
X28950000Y-43500000D02*
X28850000Y-43600000D01*
X28950000Y-42800000D02*
X28950000Y-43500000D01*
X24400000Y-43600000D02*
X24000000Y-43200000D01*
X28850000Y-43600000D02*
X24400000Y-43600000D01*
X28750000Y-41800000D02*
X29400000Y-41800000D01*
X28450000Y-42100000D02*
X28750000Y-41800000D01*
X28450000Y-42800000D02*
X28450000Y-42100000D01*
X24475736Y-42500000D02*
X22400000Y-40424264D01*
X22400000Y-40424264D02*
X22400000Y-40000000D01*
X25700000Y-42500000D02*
X24475736Y-42500000D01*
X36100000Y-36200000D02*
X36700000Y-36800000D01*
X36700000Y-36800000D02*
X36700000Y-41100000D01*
X36700000Y-41100000D02*
X36100000Y-41700000D01*
X34687500Y-41700000D02*
X33587500Y-42800000D01*
X36100000Y-41700000D02*
X34687500Y-41700000D01*
X29609999Y-43525001D02*
X29450000Y-43365002D01*
X29450000Y-43365002D02*
X29450000Y-42800000D01*
X32862499Y-43525001D02*
X29609999Y-43525001D01*
X33587500Y-42800000D02*
X32862499Y-43525001D01*
X27950000Y-40062500D02*
X27950000Y-35600012D01*
X27950000Y-35600012D02*
X28025010Y-35525002D01*
X27450000Y-35150000D02*
X27450000Y-40062500D01*
X28084454Y-34515546D02*
X27450000Y-35150000D01*
X29115546Y-34515546D02*
X28084454Y-34515546D01*
X29200000Y-34600000D02*
X29115546Y-34515546D01*
X29200000Y-34800000D02*
X29200000Y-34600000D01*
X29300000Y-34900000D02*
X29200000Y-34800000D01*
X26950000Y-41200000D02*
X26900000Y-41250000D01*
X26950000Y-35015700D02*
X26950000Y-41200000D01*
X28114968Y-33850732D02*
X26950000Y-35015700D01*
X28942960Y-33850732D02*
X28114968Y-33850732D01*
X35900000Y-21499990D02*
X35300000Y-20899990D01*
X35900000Y-22150000D02*
X35900000Y-21499990D01*
X35800000Y-23700000D02*
X36450000Y-23700000D01*
X36950000Y-24265002D02*
X36315002Y-24900000D01*
X36950000Y-23700000D02*
X36950000Y-24265002D01*
X36315002Y-24900000D02*
X35500000Y-24900000D01*
X34800000Y-24200000D02*
X34800000Y-23900000D01*
X35500000Y-24900000D02*
X34800000Y-24200000D01*
X35950000Y-25900000D02*
X35300000Y-25900000D01*
X37450000Y-23700000D02*
X37450000Y-24400000D01*
X37450000Y-24400000D02*
X35950000Y-25900000D01*
X37950000Y-25050000D02*
X36900000Y-26100000D01*
X37950000Y-23700000D02*
X37950000Y-25050000D01*
X37950000Y-21850000D02*
X38100000Y-22000000D01*
X37950000Y-21100000D02*
X37950000Y-21850000D01*
X33300000Y-29200000D02*
X32500000Y-30000000D01*
X31200000Y-30000000D02*
X31100000Y-29900000D01*
X32500000Y-30000000D02*
X31200000Y-30000000D01*
D20*
X38127000Y-36223000D02*
X38147000Y-36223000D01*
X38147000Y-36477000D01*
X38127000Y-36477000D01*
X38127000Y-37826250D01*
X38285750Y-37985000D01*
X38750000Y-37988072D01*
X38874482Y-37975812D01*
X38994180Y-37939502D01*
X39104494Y-37880537D01*
X39150000Y-37843191D01*
X39195506Y-37880537D01*
X39305820Y-37939502D01*
X39415000Y-37972622D01*
X39415000Y-39456523D01*
X39410718Y-39500000D01*
X39412195Y-39515000D01*
X39206692Y-39515000D01*
X39172729Y-39500932D01*
X38992089Y-39465000D01*
X38807911Y-39465000D01*
X38627271Y-39500932D01*
X38457111Y-39571414D01*
X38303972Y-39673738D01*
X38173738Y-39803972D01*
X38071414Y-39957111D01*
X38000932Y-40127271D01*
X37965000Y-40307911D01*
X37965000Y-40492089D01*
X38000932Y-40672729D01*
X38071414Y-40842889D01*
X38173738Y-40996028D01*
X38219033Y-41041323D01*
X38155820Y-41060498D01*
X38045506Y-41119463D01*
X37948815Y-41198815D01*
X37869463Y-41295506D01*
X37810498Y-41405820D01*
X37774188Y-41525518D01*
X37761928Y-41650000D01*
X37761928Y-43340000D01*
X36561885Y-43340000D01*
X36560000Y-43085750D01*
X36401250Y-42927000D01*
X35539500Y-42927000D01*
X35539500Y-42947000D01*
X35285500Y-42947000D01*
X35285500Y-42927000D01*
X35265500Y-42927000D01*
X35265500Y-42673000D01*
X35285500Y-42673000D01*
X35285500Y-42653000D01*
X35539500Y-42653000D01*
X35539500Y-42673000D01*
X36401250Y-42673000D01*
X36560000Y-42514250D01*
X36561556Y-42304379D01*
X36640001Y-42240001D01*
X36663803Y-42210998D01*
X37211002Y-41663800D01*
X37240001Y-41640001D01*
X37320226Y-41542247D01*
X37334974Y-41524277D01*
X37405546Y-41392247D01*
X37411748Y-41371801D01*
X37449003Y-41248986D01*
X37460000Y-41137333D01*
X37460000Y-41137324D01*
X37463676Y-41100001D01*
X37460000Y-41062678D01*
X37460000Y-37986682D01*
X37714250Y-37985000D01*
X37873000Y-37826250D01*
X37873000Y-36477000D01*
X37853000Y-36477000D01*
X37853000Y-36223000D01*
X37873000Y-36223000D01*
X37873000Y-36203000D01*
X38127000Y-36203000D01*
X38127000Y-36223000D01*
G04 #@! TA.AperFunction,Conductor*
D21*
G36*
X38127000Y-36223000D02*
G01*
X38147000Y-36223000D01*
X38147000Y-36477000D01*
X38127000Y-36477000D01*
X38127000Y-37826250D01*
X38285750Y-37985000D01*
X38750000Y-37988072D01*
X38874482Y-37975812D01*
X38994180Y-37939502D01*
X39104494Y-37880537D01*
X39150000Y-37843191D01*
X39195506Y-37880537D01*
X39305820Y-37939502D01*
X39415000Y-37972622D01*
X39415000Y-39456523D01*
X39410718Y-39500000D01*
X39412195Y-39515000D01*
X39206692Y-39515000D01*
X39172729Y-39500932D01*
X38992089Y-39465000D01*
X38807911Y-39465000D01*
X38627271Y-39500932D01*
X38457111Y-39571414D01*
X38303972Y-39673738D01*
X38173738Y-39803972D01*
X38071414Y-39957111D01*
X38000932Y-40127271D01*
X37965000Y-40307911D01*
X37965000Y-40492089D01*
X38000932Y-40672729D01*
X38071414Y-40842889D01*
X38173738Y-40996028D01*
X38219033Y-41041323D01*
X38155820Y-41060498D01*
X38045506Y-41119463D01*
X37948815Y-41198815D01*
X37869463Y-41295506D01*
X37810498Y-41405820D01*
X37774188Y-41525518D01*
X37761928Y-41650000D01*
X37761928Y-43340000D01*
X36561885Y-43340000D01*
X36560000Y-43085750D01*
X36401250Y-42927000D01*
X35539500Y-42927000D01*
X35539500Y-42947000D01*
X35285500Y-42947000D01*
X35285500Y-42927000D01*
X35265500Y-42927000D01*
X35265500Y-42673000D01*
X35285500Y-42673000D01*
X35285500Y-42653000D01*
X35539500Y-42653000D01*
X35539500Y-42673000D01*
X36401250Y-42673000D01*
X36560000Y-42514250D01*
X36561556Y-42304379D01*
X36640001Y-42240001D01*
X36663803Y-42210998D01*
X37211002Y-41663800D01*
X37240001Y-41640001D01*
X37320226Y-41542247D01*
X37334974Y-41524277D01*
X37405546Y-41392247D01*
X37411748Y-41371801D01*
X37449003Y-41248986D01*
X37460000Y-41137333D01*
X37460000Y-41137324D01*
X37463676Y-41100001D01*
X37460000Y-41062678D01*
X37460000Y-37986682D01*
X37714250Y-37985000D01*
X37873000Y-37826250D01*
X37873000Y-36477000D01*
X37853000Y-36477000D01*
X37853000Y-36223000D01*
X37873000Y-36223000D01*
X37873000Y-36203000D01*
X38127000Y-36203000D01*
X38127000Y-36223000D01*
G37*
G04 #@! TD.AperFunction*
D20*
X26695000Y-42514250D02*
X26853750Y-42673000D01*
X27570000Y-42673000D01*
X27570000Y-42840000D01*
X26571204Y-42840000D01*
X26599068Y-42772729D01*
X26635000Y-42592089D01*
X26635000Y-42484250D01*
X26693290Y-42425960D01*
X26695000Y-42514250D01*
G04 #@! TA.AperFunction,Conductor*
D21*
G36*
X26695000Y-42514250D02*
G01*
X26853750Y-42673000D01*
X27570000Y-42673000D01*
X27570000Y-42840000D01*
X26571204Y-42840000D01*
X26599068Y-42772729D01*
X26635000Y-42592089D01*
X26635000Y-42484250D01*
X26693290Y-42425960D01*
X26695000Y-42514250D01*
G37*
G04 #@! TD.AperFunction*
D20*
X35004528Y-34689851D02*
X35086595Y-34843387D01*
X35197038Y-34977962D01*
X35331613Y-35088405D01*
X35485149Y-35170472D01*
X35651745Y-35221008D01*
X35824999Y-35238072D01*
X36436493Y-35238072D01*
X36612202Y-35413781D01*
X36612219Y-35417739D01*
X36542889Y-35371414D01*
X36372729Y-35300932D01*
X36192089Y-35265000D01*
X36007911Y-35265000D01*
X35827271Y-35300932D01*
X35657111Y-35371414D01*
X35503972Y-35473738D01*
X35373738Y-35603972D01*
X35271414Y-35757111D01*
X35200932Y-35927271D01*
X35165000Y-36107911D01*
X35165000Y-36292089D01*
X35200932Y-36472729D01*
X35271414Y-36642889D01*
X35373738Y-36796028D01*
X35503972Y-36926262D01*
X35657111Y-37028586D01*
X35658809Y-37029289D01*
X35557111Y-37071414D01*
X35403972Y-37173738D01*
X35273738Y-37303972D01*
X35171414Y-37457111D01*
X35100932Y-37627271D01*
X35065000Y-37807911D01*
X35065000Y-37860198D01*
X34935000Y-37990199D01*
X34935000Y-37807911D01*
X34899068Y-37627271D01*
X34828586Y-37457111D01*
X34726262Y-37303972D01*
X34596028Y-37173738D01*
X34442889Y-37071414D01*
X34272729Y-37000932D01*
X34092089Y-36965000D01*
X33907911Y-36965000D01*
X33727271Y-37000932D01*
X33557111Y-37071414D01*
X33403972Y-37173738D01*
X33273738Y-37303972D01*
X33171414Y-37457111D01*
X33114179Y-37595290D01*
X32989551Y-37470662D01*
X32836412Y-37368338D01*
X32666252Y-37297856D01*
X32485612Y-37261924D01*
X32301434Y-37261924D01*
X32120794Y-37297856D01*
X31950634Y-37368338D01*
X31797495Y-37470662D01*
X31728157Y-37540000D01*
X29780477Y-37540000D01*
X29798377Y-37506878D01*
X29835235Y-37387348D01*
X29845000Y-37265750D01*
X29686250Y-37107000D01*
X29027000Y-37107000D01*
X29027000Y-37736250D01*
X29082974Y-37792224D01*
X28710000Y-38165198D01*
X28710000Y-37799250D01*
X28773000Y-37736250D01*
X28773000Y-37107000D01*
X28753000Y-37107000D01*
X28753000Y-36938072D01*
X29070000Y-36938072D01*
X29221794Y-36923122D01*
X29367755Y-36878845D01*
X29416108Y-36853000D01*
X29686250Y-36853000D01*
X29775427Y-36763823D01*
X29893490Y-36752195D01*
X30060313Y-36701589D01*
X30214059Y-36619411D01*
X30348817Y-36508817D01*
X30459411Y-36374059D01*
X30541589Y-36220313D01*
X30559379Y-36161669D01*
X30622729Y-36149068D01*
X30792889Y-36078586D01*
X30923481Y-35991327D01*
X31017725Y-36068671D01*
X31165858Y-36147850D01*
X31326592Y-36196608D01*
X31493750Y-36213072D01*
X31931250Y-36213072D01*
X32098408Y-36196608D01*
X32259142Y-36147850D01*
X32407275Y-36068671D01*
X32500000Y-35992574D01*
X32592725Y-36068671D01*
X32740858Y-36147850D01*
X32901592Y-36196608D01*
X33068750Y-36213072D01*
X33506250Y-36213072D01*
X33673408Y-36196608D01*
X33834142Y-36147850D01*
X33982275Y-36068671D01*
X34112115Y-35962115D01*
X34218671Y-35832275D01*
X34297850Y-35684142D01*
X34346608Y-35523408D01*
X34363072Y-35356250D01*
X34363072Y-35276006D01*
X34991657Y-34647422D01*
X35004528Y-34689851D01*
G04 #@! TA.AperFunction,Conductor*
D21*
G36*
X35004528Y-34689851D02*
G01*
X35086595Y-34843387D01*
X35197038Y-34977962D01*
X35331613Y-35088405D01*
X35485149Y-35170472D01*
X35651745Y-35221008D01*
X35824999Y-35238072D01*
X36436493Y-35238072D01*
X36612202Y-35413781D01*
X36612219Y-35417739D01*
X36542889Y-35371414D01*
X36372729Y-35300932D01*
X36192089Y-35265000D01*
X36007911Y-35265000D01*
X35827271Y-35300932D01*
X35657111Y-35371414D01*
X35503972Y-35473738D01*
X35373738Y-35603972D01*
X35271414Y-35757111D01*
X35200932Y-35927271D01*
X35165000Y-36107911D01*
X35165000Y-36292089D01*
X35200932Y-36472729D01*
X35271414Y-36642889D01*
X35373738Y-36796028D01*
X35503972Y-36926262D01*
X35657111Y-37028586D01*
X35658809Y-37029289D01*
X35557111Y-37071414D01*
X35403972Y-37173738D01*
X35273738Y-37303972D01*
X35171414Y-37457111D01*
X35100932Y-37627271D01*
X35065000Y-37807911D01*
X35065000Y-37860198D01*
X34935000Y-37990199D01*
X34935000Y-37807911D01*
X34899068Y-37627271D01*
X34828586Y-37457111D01*
X34726262Y-37303972D01*
X34596028Y-37173738D01*
X34442889Y-37071414D01*
X34272729Y-37000932D01*
X34092089Y-36965000D01*
X33907911Y-36965000D01*
X33727271Y-37000932D01*
X33557111Y-37071414D01*
X33403972Y-37173738D01*
X33273738Y-37303972D01*
X33171414Y-37457111D01*
X33114179Y-37595290D01*
X32989551Y-37470662D01*
X32836412Y-37368338D01*
X32666252Y-37297856D01*
X32485612Y-37261924D01*
X32301434Y-37261924D01*
X32120794Y-37297856D01*
X31950634Y-37368338D01*
X31797495Y-37470662D01*
X31728157Y-37540000D01*
X29780477Y-37540000D01*
X29798377Y-37506878D01*
X29835235Y-37387348D01*
X29845000Y-37265750D01*
X29686250Y-37107000D01*
X29027000Y-37107000D01*
X29027000Y-37736250D01*
X29082974Y-37792224D01*
X28710000Y-38165198D01*
X28710000Y-37799250D01*
X28773000Y-37736250D01*
X28773000Y-37107000D01*
X28753000Y-37107000D01*
X28753000Y-36938072D01*
X29070000Y-36938072D01*
X29221794Y-36923122D01*
X29367755Y-36878845D01*
X29416108Y-36853000D01*
X29686250Y-36853000D01*
X29775427Y-36763823D01*
X29893490Y-36752195D01*
X30060313Y-36701589D01*
X30214059Y-36619411D01*
X30348817Y-36508817D01*
X30459411Y-36374059D01*
X30541589Y-36220313D01*
X30559379Y-36161669D01*
X30622729Y-36149068D01*
X30792889Y-36078586D01*
X30923481Y-35991327D01*
X31017725Y-36068671D01*
X31165858Y-36147850D01*
X31326592Y-36196608D01*
X31493750Y-36213072D01*
X31931250Y-36213072D01*
X32098408Y-36196608D01*
X32259142Y-36147850D01*
X32407275Y-36068671D01*
X32500000Y-35992574D01*
X32592725Y-36068671D01*
X32740858Y-36147850D01*
X32901592Y-36196608D01*
X33068750Y-36213072D01*
X33506250Y-36213072D01*
X33673408Y-36196608D01*
X33834142Y-36147850D01*
X33982275Y-36068671D01*
X34112115Y-35962115D01*
X34218671Y-35832275D01*
X34297850Y-35684142D01*
X34346608Y-35523408D01*
X34363072Y-35356250D01*
X34363072Y-35276006D01*
X34991657Y-34647422D01*
X35004528Y-34689851D01*
G37*
G04 #@! TD.AperFunction*
D20*
X34365000Y-20807901D02*
X34365000Y-20992079D01*
X34400932Y-21172719D01*
X34471414Y-21342879D01*
X34487144Y-21366420D01*
X34340000Y-21351928D01*
X34060000Y-21351928D01*
X33908206Y-21366878D01*
X33776509Y-21406828D01*
X33766878Y-21401623D01*
X33647348Y-21364765D01*
X33525750Y-21355000D01*
X33367000Y-21513750D01*
X33367000Y-21783892D01*
X33341155Y-21832245D01*
X33296878Y-21978206D01*
X33281928Y-22130000D01*
X33281928Y-22470000D01*
X33296878Y-22621794D01*
X33341155Y-22767755D01*
X33367000Y-22816108D01*
X33367000Y-23086250D01*
X33525750Y-23245000D01*
X33647348Y-23235235D01*
X33766878Y-23198377D01*
X33776509Y-23193172D01*
X33908206Y-23233122D01*
X34060000Y-23248072D01*
X34129638Y-23248072D01*
X34073738Y-23303972D01*
X33971414Y-23457111D01*
X33968803Y-23463414D01*
X33943378Y-23446426D01*
X33773218Y-23375944D01*
X33592578Y-23340012D01*
X33408400Y-23340012D01*
X33227760Y-23375944D01*
X33057600Y-23446426D01*
X32904461Y-23548750D01*
X32774227Y-23678984D01*
X32671903Y-23832123D01*
X32601421Y-24002283D01*
X32565489Y-24182923D01*
X32565489Y-24367101D01*
X32601421Y-24547741D01*
X32671903Y-24717901D01*
X32774227Y-24871040D01*
X32855553Y-24952366D01*
X32708206Y-24966878D01*
X32576509Y-25006828D01*
X32566878Y-25001623D01*
X32447348Y-24964765D01*
X32325750Y-24955000D01*
X32167000Y-25113750D01*
X32167000Y-25383892D01*
X32141155Y-25432245D01*
X32096878Y-25578206D01*
X32081928Y-25730000D01*
X32081928Y-26047000D01*
X31913000Y-26047000D01*
X31913000Y-26027000D01*
X31283750Y-26027000D01*
X31125000Y-26185750D01*
X31121935Y-26207077D01*
X31133625Y-26331613D01*
X31169386Y-26451476D01*
X31227844Y-26562059D01*
X31306753Y-26659113D01*
X31403079Y-26738908D01*
X31513122Y-26798377D01*
X31632652Y-26835235D01*
X31754250Y-26845000D01*
X31861930Y-26737320D01*
X31861930Y-26842963D01*
X31897862Y-27023603D01*
X31968344Y-27193763D01*
X32070668Y-27346902D01*
X32200902Y-27477136D01*
X32354041Y-27579460D01*
X32524201Y-27649942D01*
X32704841Y-27685874D01*
X32889019Y-27685874D01*
X33069659Y-27649942D01*
X33239819Y-27579460D01*
X33392958Y-27477136D01*
X33523192Y-27346902D01*
X33625516Y-27193763D01*
X33695998Y-27023603D01*
X33731930Y-26842963D01*
X33731930Y-26753073D01*
X33749003Y-26696790D01*
X33760000Y-26585137D01*
X33760000Y-26585128D01*
X33763676Y-26547805D01*
X33762165Y-26532466D01*
X33786943Y-26502274D01*
X33858845Y-26367755D01*
X33903122Y-26221794D01*
X33918072Y-26070000D01*
X33918072Y-25730000D01*
X33903122Y-25578206D01*
X33858845Y-25432245D01*
X33786943Y-25297726D01*
X33697784Y-25189085D01*
X33773218Y-25174080D01*
X33943378Y-25103598D01*
X34096517Y-25001274D01*
X34226751Y-24871040D01*
X34294638Y-24769439D01*
X34701454Y-25176256D01*
X34573738Y-25303972D01*
X34471414Y-25457111D01*
X34400932Y-25627271D01*
X34365000Y-25807911D01*
X34365000Y-25992089D01*
X34400932Y-26172729D01*
X34471414Y-26342889D01*
X34573738Y-26496028D01*
X34703972Y-26626262D01*
X34857111Y-26728586D01*
X35027271Y-26799068D01*
X35207911Y-26835000D01*
X35392089Y-26835000D01*
X35572729Y-26799068D01*
X35742889Y-26728586D01*
X35845535Y-26660000D01*
X35912678Y-26660000D01*
X35950000Y-26663676D01*
X35987322Y-26660000D01*
X35987333Y-26660000D01*
X36098986Y-26649003D01*
X36135014Y-26638074D01*
X36173738Y-26696028D01*
X36303972Y-26826262D01*
X36420845Y-26904354D01*
X36139002Y-27186197D01*
X36109999Y-27209999D01*
X36074422Y-27253350D01*
X36015026Y-27325724D01*
X36003706Y-27346902D01*
X35944454Y-27457754D01*
X35900997Y-27601015D01*
X35890000Y-27712668D01*
X35890000Y-27712678D01*
X35886324Y-27750000D01*
X35890000Y-27787323D01*
X35890001Y-28971997D01*
X35839003Y-29022995D01*
X35838997Y-29023000D01*
X35196183Y-29665814D01*
X35192089Y-29665000D01*
X35007911Y-29665000D01*
X34827271Y-29700932D01*
X34657111Y-29771414D01*
X34503972Y-29873738D01*
X34373738Y-30003972D01*
X34271414Y-30157111D01*
X34200932Y-30327271D01*
X34165000Y-30507911D01*
X34165000Y-30692089D01*
X34200932Y-30872729D01*
X34215601Y-30908144D01*
X34121424Y-31049091D01*
X34050942Y-31219251D01*
X34015010Y-31399891D01*
X34015010Y-31584069D01*
X34050942Y-31764709D01*
X34121424Y-31934869D01*
X34159555Y-31991936D01*
X34121424Y-32049002D01*
X34050942Y-32219162D01*
X34015010Y-32399802D01*
X34015010Y-32583980D01*
X34050942Y-32764620D01*
X34121424Y-32934780D01*
X34158067Y-32989620D01*
X34058683Y-33071183D01*
X34030966Y-33104956D01*
X33998709Y-33137213D01*
X33998703Y-33137218D01*
X33148994Y-33986928D01*
X33068750Y-33986928D01*
X32901592Y-34003392D01*
X32740858Y-34052150D01*
X32592725Y-34131329D01*
X32500000Y-34207426D01*
X32407275Y-34131329D01*
X32259142Y-34052150D01*
X32098408Y-34003392D01*
X31931250Y-33986928D01*
X31493750Y-33986928D01*
X31326592Y-34003392D01*
X31165858Y-34052150D01*
X31017725Y-34131329D01*
X30887885Y-34237885D01*
X30804082Y-34340000D01*
X30567771Y-34340000D01*
X30442089Y-34315000D01*
X30257911Y-34315000D01*
X30077271Y-34350932D01*
X30061895Y-34357301D01*
X30026262Y-34303972D01*
X29896028Y-34173738D01*
X29837423Y-34134579D01*
X29842028Y-34123461D01*
X29877960Y-33942821D01*
X29877960Y-33758643D01*
X29842028Y-33578003D01*
X29771546Y-33407843D01*
X29669222Y-33254704D01*
X29538988Y-33124470D01*
X29385849Y-33022146D01*
X29215689Y-32951664D01*
X29035049Y-32915732D01*
X28850871Y-32915732D01*
X28670231Y-32951664D01*
X28500071Y-33022146D01*
X28397425Y-33090732D01*
X28152301Y-33090732D01*
X28114968Y-33087055D01*
X28077635Y-33090732D01*
X27965982Y-33101729D01*
X27822721Y-33145186D01*
X27690692Y-33215758D01*
X27574967Y-33310731D01*
X27551169Y-33339729D01*
X26439003Y-34451896D01*
X26409999Y-34475699D01*
X26392080Y-34497534D01*
X26264851Y-34429528D01*
X26098255Y-34378992D01*
X25925001Y-34361928D01*
X24674999Y-34361928D01*
X24501745Y-34378992D01*
X24335149Y-34429528D01*
X24181613Y-34511595D01*
X24047038Y-34622038D01*
X23936595Y-34756613D01*
X23854528Y-34910149D01*
X23803992Y-35076745D01*
X23786928Y-35249999D01*
X23786928Y-35761928D01*
X23270000Y-35761928D01*
X23145518Y-35774188D01*
X23025820Y-35810498D01*
X22942774Y-35854888D01*
X22831067Y-35808617D01*
X22813072Y-35805038D01*
X22813072Y-35212499D01*
X22796008Y-35039245D01*
X22745472Y-34872649D01*
X22663405Y-34719113D01*
X22552962Y-34584538D01*
X22418387Y-34474095D01*
X22264851Y-34392028D01*
X22098255Y-34341492D01*
X21925001Y-34324428D01*
X20674999Y-34324428D01*
X20660000Y-34325905D01*
X20660000Y-33799095D01*
X20674999Y-33800572D01*
X21925001Y-33800572D01*
X22098255Y-33783508D01*
X22264851Y-33732972D01*
X22418387Y-33650905D01*
X22552962Y-33540462D01*
X22663405Y-33405887D01*
X22745472Y-33252351D01*
X22796008Y-33085755D01*
X22813072Y-32912501D01*
X22813072Y-32861730D01*
X23211008Y-32463795D01*
X23240001Y-32440001D01*
X23263795Y-32411008D01*
X23263799Y-32411004D01*
X23323000Y-32338866D01*
X23334974Y-32324276D01*
X23405546Y-32192247D01*
X23449003Y-32048986D01*
X23460000Y-31937333D01*
X23460000Y-31937324D01*
X23463676Y-31900001D01*
X23461051Y-31873354D01*
X23798204Y-32210507D01*
X23786928Y-32324999D01*
X23786928Y-32950001D01*
X23803992Y-33123255D01*
X23854528Y-33289851D01*
X23936595Y-33443387D01*
X24047038Y-33577962D01*
X24181613Y-33688405D01*
X24335149Y-33770472D01*
X24501745Y-33821008D01*
X24674999Y-33838072D01*
X25925001Y-33838072D01*
X26098255Y-33821008D01*
X26264851Y-33770472D01*
X26418387Y-33688405D01*
X26552962Y-33577962D01*
X26663405Y-33443387D01*
X26745472Y-33289851D01*
X26796008Y-33123255D01*
X26813072Y-32950001D01*
X26813072Y-32447346D01*
X30899596Y-32447346D01*
X30936918Y-32451022D01*
X30974240Y-32447346D01*
X30974251Y-32447346D01*
X31085904Y-32436349D01*
X31229165Y-32392892D01*
X31361194Y-32322320D01*
X31476919Y-32227347D01*
X31500721Y-32198344D01*
X31811003Y-31888063D01*
X31840001Y-31864265D01*
X31934974Y-31748540D01*
X32005546Y-31616511D01*
X32049003Y-31473250D01*
X32050303Y-31460048D01*
X32128586Y-31342889D01*
X32199068Y-31172729D01*
X32235000Y-30992089D01*
X32235000Y-30807911D01*
X32225470Y-30760000D01*
X32462678Y-30760000D01*
X32500000Y-30763676D01*
X32537322Y-30760000D01*
X32537333Y-30760000D01*
X32648986Y-30749003D01*
X32792247Y-30705546D01*
X32924276Y-30634974D01*
X33040001Y-30540001D01*
X33063803Y-30510998D01*
X33451649Y-30123153D01*
X33572729Y-30099068D01*
X33742889Y-30028586D01*
X33896028Y-29926262D01*
X34026262Y-29796028D01*
X34128586Y-29642889D01*
X34199068Y-29472729D01*
X34235000Y-29292089D01*
X34235000Y-29107911D01*
X34199068Y-28927271D01*
X34128586Y-28757111D01*
X34026262Y-28603972D01*
X33896028Y-28473738D01*
X33742889Y-28371414D01*
X33572729Y-28300932D01*
X33392089Y-28265000D01*
X33207911Y-28265000D01*
X33027271Y-28300932D01*
X32857111Y-28371414D01*
X32703972Y-28473738D01*
X32573738Y-28603972D01*
X32471414Y-28757111D01*
X32400932Y-28927271D01*
X32376847Y-29048351D01*
X32208093Y-29217106D01*
X32189502Y-29155820D01*
X32130537Y-29045506D01*
X32051185Y-28948815D01*
X31954494Y-28869463D01*
X31867777Y-28823111D01*
X31833169Y-28649128D01*
X31762687Y-28478968D01*
X31660363Y-28325829D01*
X31530129Y-28195595D01*
X31376990Y-28093271D01*
X31206830Y-28022789D01*
X31026190Y-27986857D01*
X30842012Y-27986857D01*
X30661372Y-28022789D01*
X30491212Y-28093271D01*
X30421277Y-28140000D01*
X26460901Y-28140000D01*
X26419948Y-28118110D01*
X26281491Y-28076110D01*
X26137500Y-28061928D01*
X24712500Y-28061928D01*
X24568509Y-28076110D01*
X24430052Y-28118110D01*
X24302449Y-28186316D01*
X24190604Y-28278104D01*
X24098816Y-28389949D01*
X24030610Y-28517552D01*
X23988610Y-28656009D01*
X23974428Y-28800000D01*
X23974428Y-29000000D01*
X23988610Y-29143991D01*
X24013184Y-29225000D01*
X23988610Y-29306009D01*
X23974428Y-29450000D01*
X23974428Y-29650000D01*
X23988610Y-29793991D01*
X24013184Y-29875000D01*
X23988610Y-29956009D01*
X23974428Y-30100000D01*
X23974428Y-30237126D01*
X22776304Y-29039003D01*
X22752501Y-29009999D01*
X22650572Y-28926348D01*
X22650572Y-28800000D01*
X22636390Y-28656009D01*
X22594390Y-28517552D01*
X22584528Y-28499102D01*
X22586878Y-28498377D01*
X22696921Y-28438908D01*
X22793247Y-28359113D01*
X22872156Y-28262059D01*
X22930614Y-28151476D01*
X22966375Y-28031613D01*
X22978065Y-27907077D01*
X22975000Y-27885750D01*
X22816250Y-27727000D01*
X22187000Y-27727000D01*
X22187000Y-27747000D01*
X22018072Y-27747000D01*
X22018072Y-27430000D01*
X22003122Y-27278206D01*
X21982938Y-27211670D01*
X21999068Y-27172729D01*
X22035000Y-26992089D01*
X22035000Y-26813750D01*
X22187000Y-26813750D01*
X22187000Y-27473000D01*
X22816250Y-27473000D01*
X22975000Y-27314250D01*
X22978065Y-27292923D01*
X22966375Y-27168387D01*
X22930614Y-27048524D01*
X22872156Y-26937941D01*
X22793247Y-26840887D01*
X22696921Y-26761092D01*
X22586878Y-26701623D01*
X22467348Y-26664765D01*
X22345750Y-26655000D01*
X22187000Y-26813750D01*
X22035000Y-26813750D01*
X22035000Y-26807911D01*
X21999068Y-26627271D01*
X21928586Y-26457111D01*
X21826262Y-26303972D01*
X21730201Y-26207911D01*
X27758754Y-26207911D01*
X27758754Y-26392089D01*
X27794686Y-26572729D01*
X27865168Y-26742889D01*
X27967492Y-26896028D01*
X28097726Y-27026262D01*
X28250865Y-27128586D01*
X28421025Y-27199068D01*
X28601665Y-27235000D01*
X28785843Y-27235000D01*
X28966483Y-27199068D01*
X28973763Y-27196053D01*
X29003972Y-27226262D01*
X29157111Y-27328586D01*
X29327271Y-27399068D01*
X29507911Y-27435000D01*
X29692089Y-27435000D01*
X29872729Y-27399068D01*
X30042889Y-27328586D01*
X30196028Y-27226262D01*
X30326262Y-27096028D01*
X30428586Y-26942889D01*
X30499068Y-26772729D01*
X30535000Y-26592089D01*
X30535000Y-26407911D01*
X30499068Y-26227271D01*
X30428586Y-26057111D01*
X30326262Y-25903972D01*
X30196028Y-25773738D01*
X30042889Y-25671414D01*
X29872729Y-25600932D01*
X29832466Y-25592923D01*
X31121935Y-25592923D01*
X31125000Y-25614250D01*
X31283750Y-25773000D01*
X31913000Y-25773000D01*
X31913000Y-25113750D01*
X31754250Y-24955000D01*
X31632652Y-24964765D01*
X31513122Y-25001623D01*
X31403079Y-25061092D01*
X31306753Y-25140887D01*
X31227844Y-25237941D01*
X31169386Y-25348524D01*
X31133625Y-25468387D01*
X31121935Y-25592923D01*
X29832466Y-25592923D01*
X29692089Y-25565000D01*
X29507911Y-25565000D01*
X29503121Y-25565953D01*
X29469170Y-25524584D01*
X29353445Y-25429611D01*
X29221415Y-25359039D01*
X29078154Y-25315583D01*
X28929168Y-25300909D01*
X28780182Y-25315583D01*
X28636923Y-25359039D01*
X28625771Y-25365000D01*
X28601665Y-25365000D01*
X28421025Y-25400932D01*
X28250865Y-25471414D01*
X28097726Y-25573738D01*
X27967492Y-25703972D01*
X27865168Y-25857111D01*
X27794686Y-26027271D01*
X27758754Y-26207911D01*
X21730201Y-26207911D01*
X21696028Y-26173738D01*
X21542889Y-26071414D01*
X21372729Y-26000932D01*
X21192089Y-25965000D01*
X21007911Y-25965000D01*
X20827271Y-26000932D01*
X20660000Y-26070217D01*
X20660000Y-22607077D01*
X32321935Y-22607077D01*
X32333625Y-22731613D01*
X32369386Y-22851476D01*
X32427844Y-22962059D01*
X32506753Y-23059113D01*
X32603079Y-23138908D01*
X32713122Y-23198377D01*
X32832652Y-23235235D01*
X32954250Y-23245000D01*
X33113000Y-23086250D01*
X33113000Y-22427000D01*
X32483750Y-22427000D01*
X32325000Y-22585750D01*
X32321935Y-22607077D01*
X20660000Y-22607077D01*
X20660000Y-21992923D01*
X32321935Y-21992923D01*
X32325000Y-22014250D01*
X32483750Y-22173000D01*
X33113000Y-22173000D01*
X33113000Y-21513750D01*
X32954250Y-21355000D01*
X32832652Y-21364765D01*
X32713122Y-21401623D01*
X32603079Y-21461092D01*
X32506753Y-21540887D01*
X32427844Y-21637941D01*
X32369386Y-21748524D01*
X32333625Y-21868387D01*
X32321935Y-21992923D01*
X20660000Y-21992923D01*
X20660000Y-20660000D01*
X34394420Y-20660000D01*
X34365000Y-20807901D01*
G04 #@! TA.AperFunction,Conductor*
D21*
G36*
X34365000Y-20807901D02*
G01*
X34365000Y-20992079D01*
X34400932Y-21172719D01*
X34471414Y-21342879D01*
X34487144Y-21366420D01*
X34340000Y-21351928D01*
X34060000Y-21351928D01*
X33908206Y-21366878D01*
X33776509Y-21406828D01*
X33766878Y-21401623D01*
X33647348Y-21364765D01*
X33525750Y-21355000D01*
X33367000Y-21513750D01*
X33367000Y-21783892D01*
X33341155Y-21832245D01*
X33296878Y-21978206D01*
X33281928Y-22130000D01*
X33281928Y-22470000D01*
X33296878Y-22621794D01*
X33341155Y-22767755D01*
X33367000Y-22816108D01*
X33367000Y-23086250D01*
X33525750Y-23245000D01*
X33647348Y-23235235D01*
X33766878Y-23198377D01*
X33776509Y-23193172D01*
X33908206Y-23233122D01*
X34060000Y-23248072D01*
X34129638Y-23248072D01*
X34073738Y-23303972D01*
X33971414Y-23457111D01*
X33968803Y-23463414D01*
X33943378Y-23446426D01*
X33773218Y-23375944D01*
X33592578Y-23340012D01*
X33408400Y-23340012D01*
X33227760Y-23375944D01*
X33057600Y-23446426D01*
X32904461Y-23548750D01*
X32774227Y-23678984D01*
X32671903Y-23832123D01*
X32601421Y-24002283D01*
X32565489Y-24182923D01*
X32565489Y-24367101D01*
X32601421Y-24547741D01*
X32671903Y-24717901D01*
X32774227Y-24871040D01*
X32855553Y-24952366D01*
X32708206Y-24966878D01*
X32576509Y-25006828D01*
X32566878Y-25001623D01*
X32447348Y-24964765D01*
X32325750Y-24955000D01*
X32167000Y-25113750D01*
X32167000Y-25383892D01*
X32141155Y-25432245D01*
X32096878Y-25578206D01*
X32081928Y-25730000D01*
X32081928Y-26047000D01*
X31913000Y-26047000D01*
X31913000Y-26027000D01*
X31283750Y-26027000D01*
X31125000Y-26185750D01*
X31121935Y-26207077D01*
X31133625Y-26331613D01*
X31169386Y-26451476D01*
X31227844Y-26562059D01*
X31306753Y-26659113D01*
X31403079Y-26738908D01*
X31513122Y-26798377D01*
X31632652Y-26835235D01*
X31754250Y-26845000D01*
X31861930Y-26737320D01*
X31861930Y-26842963D01*
X31897862Y-27023603D01*
X31968344Y-27193763D01*
X32070668Y-27346902D01*
X32200902Y-27477136D01*
X32354041Y-27579460D01*
X32524201Y-27649942D01*
X32704841Y-27685874D01*
X32889019Y-27685874D01*
X33069659Y-27649942D01*
X33239819Y-27579460D01*
X33392958Y-27477136D01*
X33523192Y-27346902D01*
X33625516Y-27193763D01*
X33695998Y-27023603D01*
X33731930Y-26842963D01*
X33731930Y-26753073D01*
X33749003Y-26696790D01*
X33760000Y-26585137D01*
X33760000Y-26585128D01*
X33763676Y-26547805D01*
X33762165Y-26532466D01*
X33786943Y-26502274D01*
X33858845Y-26367755D01*
X33903122Y-26221794D01*
X33918072Y-26070000D01*
X33918072Y-25730000D01*
X33903122Y-25578206D01*
X33858845Y-25432245D01*
X33786943Y-25297726D01*
X33697784Y-25189085D01*
X33773218Y-25174080D01*
X33943378Y-25103598D01*
X34096517Y-25001274D01*
X34226751Y-24871040D01*
X34294638Y-24769439D01*
X34701454Y-25176256D01*
X34573738Y-25303972D01*
X34471414Y-25457111D01*
X34400932Y-25627271D01*
X34365000Y-25807911D01*
X34365000Y-25992089D01*
X34400932Y-26172729D01*
X34471414Y-26342889D01*
X34573738Y-26496028D01*
X34703972Y-26626262D01*
X34857111Y-26728586D01*
X35027271Y-26799068D01*
X35207911Y-26835000D01*
X35392089Y-26835000D01*
X35572729Y-26799068D01*
X35742889Y-26728586D01*
X35845535Y-26660000D01*
X35912678Y-26660000D01*
X35950000Y-26663676D01*
X35987322Y-26660000D01*
X35987333Y-26660000D01*
X36098986Y-26649003D01*
X36135014Y-26638074D01*
X36173738Y-26696028D01*
X36303972Y-26826262D01*
X36420845Y-26904354D01*
X36139002Y-27186197D01*
X36109999Y-27209999D01*
X36074422Y-27253350D01*
X36015026Y-27325724D01*
X36003706Y-27346902D01*
X35944454Y-27457754D01*
X35900997Y-27601015D01*
X35890000Y-27712668D01*
X35890000Y-27712678D01*
X35886324Y-27750000D01*
X35890000Y-27787323D01*
X35890001Y-28971997D01*
X35839003Y-29022995D01*
X35838997Y-29023000D01*
X35196183Y-29665814D01*
X35192089Y-29665000D01*
X35007911Y-29665000D01*
X34827271Y-29700932D01*
X34657111Y-29771414D01*
X34503972Y-29873738D01*
X34373738Y-30003972D01*
X34271414Y-30157111D01*
X34200932Y-30327271D01*
X34165000Y-30507911D01*
X34165000Y-30692089D01*
X34200932Y-30872729D01*
X34215601Y-30908144D01*
X34121424Y-31049091D01*
X34050942Y-31219251D01*
X34015010Y-31399891D01*
X34015010Y-31584069D01*
X34050942Y-31764709D01*
X34121424Y-31934869D01*
X34159555Y-31991936D01*
X34121424Y-32049002D01*
X34050942Y-32219162D01*
X34015010Y-32399802D01*
X34015010Y-32583980D01*
X34050942Y-32764620D01*
X34121424Y-32934780D01*
X34158067Y-32989620D01*
X34058683Y-33071183D01*
X34030966Y-33104956D01*
X33998709Y-33137213D01*
X33998703Y-33137218D01*
X33148994Y-33986928D01*
X33068750Y-33986928D01*
X32901592Y-34003392D01*
X32740858Y-34052150D01*
X32592725Y-34131329D01*
X32500000Y-34207426D01*
X32407275Y-34131329D01*
X32259142Y-34052150D01*
X32098408Y-34003392D01*
X31931250Y-33986928D01*
X31493750Y-33986928D01*
X31326592Y-34003392D01*
X31165858Y-34052150D01*
X31017725Y-34131329D01*
X30887885Y-34237885D01*
X30804082Y-34340000D01*
X30567771Y-34340000D01*
X30442089Y-34315000D01*
X30257911Y-34315000D01*
X30077271Y-34350932D01*
X30061895Y-34357301D01*
X30026262Y-34303972D01*
X29896028Y-34173738D01*
X29837423Y-34134579D01*
X29842028Y-34123461D01*
X29877960Y-33942821D01*
X29877960Y-33758643D01*
X29842028Y-33578003D01*
X29771546Y-33407843D01*
X29669222Y-33254704D01*
X29538988Y-33124470D01*
X29385849Y-33022146D01*
X29215689Y-32951664D01*
X29035049Y-32915732D01*
X28850871Y-32915732D01*
X28670231Y-32951664D01*
X28500071Y-33022146D01*
X28397425Y-33090732D01*
X28152301Y-33090732D01*
X28114968Y-33087055D01*
X28077635Y-33090732D01*
X27965982Y-33101729D01*
X27822721Y-33145186D01*
X27690692Y-33215758D01*
X27574967Y-33310731D01*
X27551169Y-33339729D01*
X26439003Y-34451896D01*
X26409999Y-34475699D01*
X26392080Y-34497534D01*
X26264851Y-34429528D01*
X26098255Y-34378992D01*
X25925001Y-34361928D01*
X24674999Y-34361928D01*
X24501745Y-34378992D01*
X24335149Y-34429528D01*
X24181613Y-34511595D01*
X24047038Y-34622038D01*
X23936595Y-34756613D01*
X23854528Y-34910149D01*
X23803992Y-35076745D01*
X23786928Y-35249999D01*
X23786928Y-35761928D01*
X23270000Y-35761928D01*
X23145518Y-35774188D01*
X23025820Y-35810498D01*
X22942774Y-35854888D01*
X22831067Y-35808617D01*
X22813072Y-35805038D01*
X22813072Y-35212499D01*
X22796008Y-35039245D01*
X22745472Y-34872649D01*
X22663405Y-34719113D01*
X22552962Y-34584538D01*
X22418387Y-34474095D01*
X22264851Y-34392028D01*
X22098255Y-34341492D01*
X21925001Y-34324428D01*
X20674999Y-34324428D01*
X20660000Y-34325905D01*
X20660000Y-33799095D01*
X20674999Y-33800572D01*
X21925001Y-33800572D01*
X22098255Y-33783508D01*
X22264851Y-33732972D01*
X22418387Y-33650905D01*
X22552962Y-33540462D01*
X22663405Y-33405887D01*
X22745472Y-33252351D01*
X22796008Y-33085755D01*
X22813072Y-32912501D01*
X22813072Y-32861730D01*
X23211008Y-32463795D01*
X23240001Y-32440001D01*
X23263795Y-32411008D01*
X23263799Y-32411004D01*
X23323000Y-32338866D01*
X23334974Y-32324276D01*
X23405546Y-32192247D01*
X23449003Y-32048986D01*
X23460000Y-31937333D01*
X23460000Y-31937324D01*
X23463676Y-31900001D01*
X23461051Y-31873354D01*
X23798204Y-32210507D01*
X23786928Y-32324999D01*
X23786928Y-32950001D01*
X23803992Y-33123255D01*
X23854528Y-33289851D01*
X23936595Y-33443387D01*
X24047038Y-33577962D01*
X24181613Y-33688405D01*
X24335149Y-33770472D01*
X24501745Y-33821008D01*
X24674999Y-33838072D01*
X25925001Y-33838072D01*
X26098255Y-33821008D01*
X26264851Y-33770472D01*
X26418387Y-33688405D01*
X26552962Y-33577962D01*
X26663405Y-33443387D01*
X26745472Y-33289851D01*
X26796008Y-33123255D01*
X26813072Y-32950001D01*
X26813072Y-32447346D01*
X30899596Y-32447346D01*
X30936918Y-32451022D01*
X30974240Y-32447346D01*
X30974251Y-32447346D01*
X31085904Y-32436349D01*
X31229165Y-32392892D01*
X31361194Y-32322320D01*
X31476919Y-32227347D01*
X31500721Y-32198344D01*
X31811003Y-31888063D01*
X31840001Y-31864265D01*
X31934974Y-31748540D01*
X32005546Y-31616511D01*
X32049003Y-31473250D01*
X32050303Y-31460048D01*
X32128586Y-31342889D01*
X32199068Y-31172729D01*
X32235000Y-30992089D01*
X32235000Y-30807911D01*
X32225470Y-30760000D01*
X32462678Y-30760000D01*
X32500000Y-30763676D01*
X32537322Y-30760000D01*
X32537333Y-30760000D01*
X32648986Y-30749003D01*
X32792247Y-30705546D01*
X32924276Y-30634974D01*
X33040001Y-30540001D01*
X33063803Y-30510998D01*
X33451649Y-30123153D01*
X33572729Y-30099068D01*
X33742889Y-30028586D01*
X33896028Y-29926262D01*
X34026262Y-29796028D01*
X34128586Y-29642889D01*
X34199068Y-29472729D01*
X34235000Y-29292089D01*
X34235000Y-29107911D01*
X34199068Y-28927271D01*
X34128586Y-28757111D01*
X34026262Y-28603972D01*
X33896028Y-28473738D01*
X33742889Y-28371414D01*
X33572729Y-28300932D01*
X33392089Y-28265000D01*
X33207911Y-28265000D01*
X33027271Y-28300932D01*
X32857111Y-28371414D01*
X32703972Y-28473738D01*
X32573738Y-28603972D01*
X32471414Y-28757111D01*
X32400932Y-28927271D01*
X32376847Y-29048351D01*
X32208093Y-29217106D01*
X32189502Y-29155820D01*
X32130537Y-29045506D01*
X32051185Y-28948815D01*
X31954494Y-28869463D01*
X31867777Y-28823111D01*
X31833169Y-28649128D01*
X31762687Y-28478968D01*
X31660363Y-28325829D01*
X31530129Y-28195595D01*
X31376990Y-28093271D01*
X31206830Y-28022789D01*
X31026190Y-27986857D01*
X30842012Y-27986857D01*
X30661372Y-28022789D01*
X30491212Y-28093271D01*
X30421277Y-28140000D01*
X26460901Y-28140000D01*
X26419948Y-28118110D01*
X26281491Y-28076110D01*
X26137500Y-28061928D01*
X24712500Y-28061928D01*
X24568509Y-28076110D01*
X24430052Y-28118110D01*
X24302449Y-28186316D01*
X24190604Y-28278104D01*
X24098816Y-28389949D01*
X24030610Y-28517552D01*
X23988610Y-28656009D01*
X23974428Y-28800000D01*
X23974428Y-29000000D01*
X23988610Y-29143991D01*
X24013184Y-29225000D01*
X23988610Y-29306009D01*
X23974428Y-29450000D01*
X23974428Y-29650000D01*
X23988610Y-29793991D01*
X24013184Y-29875000D01*
X23988610Y-29956009D01*
X23974428Y-30100000D01*
X23974428Y-30237126D01*
X22776304Y-29039003D01*
X22752501Y-29009999D01*
X22650572Y-28926348D01*
X22650572Y-28800000D01*
X22636390Y-28656009D01*
X22594390Y-28517552D01*
X22584528Y-28499102D01*
X22586878Y-28498377D01*
X22696921Y-28438908D01*
X22793247Y-28359113D01*
X22872156Y-28262059D01*
X22930614Y-28151476D01*
X22966375Y-28031613D01*
X22978065Y-27907077D01*
X22975000Y-27885750D01*
X22816250Y-27727000D01*
X22187000Y-27727000D01*
X22187000Y-27747000D01*
X22018072Y-27747000D01*
X22018072Y-27430000D01*
X22003122Y-27278206D01*
X21982938Y-27211670D01*
X21999068Y-27172729D01*
X22035000Y-26992089D01*
X22035000Y-26813750D01*
X22187000Y-26813750D01*
X22187000Y-27473000D01*
X22816250Y-27473000D01*
X22975000Y-27314250D01*
X22978065Y-27292923D01*
X22966375Y-27168387D01*
X22930614Y-27048524D01*
X22872156Y-26937941D01*
X22793247Y-26840887D01*
X22696921Y-26761092D01*
X22586878Y-26701623D01*
X22467348Y-26664765D01*
X22345750Y-26655000D01*
X22187000Y-26813750D01*
X22035000Y-26813750D01*
X22035000Y-26807911D01*
X21999068Y-26627271D01*
X21928586Y-26457111D01*
X21826262Y-26303972D01*
X21730201Y-26207911D01*
X27758754Y-26207911D01*
X27758754Y-26392089D01*
X27794686Y-26572729D01*
X27865168Y-26742889D01*
X27967492Y-26896028D01*
X28097726Y-27026262D01*
X28250865Y-27128586D01*
X28421025Y-27199068D01*
X28601665Y-27235000D01*
X28785843Y-27235000D01*
X28966483Y-27199068D01*
X28973763Y-27196053D01*
X29003972Y-27226262D01*
X29157111Y-27328586D01*
X29327271Y-27399068D01*
X29507911Y-27435000D01*
X29692089Y-27435000D01*
X29872729Y-27399068D01*
X30042889Y-27328586D01*
X30196028Y-27226262D01*
X30326262Y-27096028D01*
X30428586Y-26942889D01*
X30499068Y-26772729D01*
X30535000Y-26592089D01*
X30535000Y-26407911D01*
X30499068Y-26227271D01*
X30428586Y-26057111D01*
X30326262Y-25903972D01*
X30196028Y-25773738D01*
X30042889Y-25671414D01*
X29872729Y-25600932D01*
X29832466Y-25592923D01*
X31121935Y-25592923D01*
X31125000Y-25614250D01*
X31283750Y-25773000D01*
X31913000Y-25773000D01*
X31913000Y-25113750D01*
X31754250Y-24955000D01*
X31632652Y-24964765D01*
X31513122Y-25001623D01*
X31403079Y-25061092D01*
X31306753Y-25140887D01*
X31227844Y-25237941D01*
X31169386Y-25348524D01*
X31133625Y-25468387D01*
X31121935Y-25592923D01*
X29832466Y-25592923D01*
X29692089Y-25565000D01*
X29507911Y-25565000D01*
X29503121Y-25565953D01*
X29469170Y-25524584D01*
X29353445Y-25429611D01*
X29221415Y-25359039D01*
X29078154Y-25315583D01*
X28929168Y-25300909D01*
X28780182Y-25315583D01*
X28636923Y-25359039D01*
X28625771Y-25365000D01*
X28601665Y-25365000D01*
X28421025Y-25400932D01*
X28250865Y-25471414D01*
X28097726Y-25573738D01*
X27967492Y-25703972D01*
X27865168Y-25857111D01*
X27794686Y-26027271D01*
X27758754Y-26207911D01*
X21730201Y-26207911D01*
X21696028Y-26173738D01*
X21542889Y-26071414D01*
X21372729Y-26000932D01*
X21192089Y-25965000D01*
X21007911Y-25965000D01*
X20827271Y-26000932D01*
X20660000Y-26070217D01*
X20660000Y-22607077D01*
X32321935Y-22607077D01*
X32333625Y-22731613D01*
X32369386Y-22851476D01*
X32427844Y-22962059D01*
X32506753Y-23059113D01*
X32603079Y-23138908D01*
X32713122Y-23198377D01*
X32832652Y-23235235D01*
X32954250Y-23245000D01*
X33113000Y-23086250D01*
X33113000Y-22427000D01*
X32483750Y-22427000D01*
X32325000Y-22585750D01*
X32321935Y-22607077D01*
X20660000Y-22607077D01*
X20660000Y-21992923D01*
X32321935Y-21992923D01*
X32325000Y-22014250D01*
X32483750Y-22173000D01*
X33113000Y-22173000D01*
X33113000Y-21513750D01*
X32954250Y-21355000D01*
X32832652Y-21364765D01*
X32713122Y-21401623D01*
X32603079Y-21461092D01*
X32506753Y-21540887D01*
X32427844Y-21637941D01*
X32369386Y-21748524D01*
X32333625Y-21868387D01*
X32321935Y-21992923D01*
X20660000Y-21992923D01*
X20660000Y-20660000D01*
X34394420Y-20660000D01*
X34365000Y-20807901D01*
G37*
G04 #@! TD.AperFunction*
D20*
X41457000Y-33973000D02*
X41468026Y-33973000D01*
X41465000Y-33988212D01*
X41465000Y-34211788D01*
X41468026Y-34227000D01*
X41457000Y-34227000D01*
X41457000Y-34247000D01*
X41203000Y-34247000D01*
X41203000Y-34227000D01*
X41183000Y-34227000D01*
X41183000Y-33973000D01*
X41203000Y-33973000D01*
X41203000Y-33953000D01*
X41457000Y-33953000D01*
X41457000Y-33973000D01*
G04 #@! TA.AperFunction,Conductor*
D21*
G36*
X41457000Y-33973000D02*
G01*
X41468026Y-33973000D01*
X41465000Y-33988212D01*
X41465000Y-34211788D01*
X41468026Y-34227000D01*
X41457000Y-34227000D01*
X41457000Y-34247000D01*
X41203000Y-34247000D01*
X41203000Y-34227000D01*
X41183000Y-34227000D01*
X41183000Y-33973000D01*
X41203000Y-33973000D01*
X41203000Y-33953000D01*
X41457000Y-33953000D01*
X41457000Y-33973000D01*
G37*
G04 #@! TD.AperFunction*
D20*
X41087039Y-26809476D02*
X40963341Y-26994602D01*
X40878137Y-27200304D01*
X40834700Y-27418675D01*
X40834700Y-27641325D01*
X40878137Y-27859696D01*
X40963341Y-28065398D01*
X41087039Y-28250524D01*
X41244476Y-28407961D01*
X41429602Y-28531659D01*
X41449739Y-28540000D01*
X41043935Y-28540000D01*
X41043444Y-28539509D01*
X40890305Y-28437185D01*
X40720145Y-28366703D01*
X40539505Y-28330771D01*
X40355327Y-28330771D01*
X40174687Y-28366703D01*
X40004527Y-28437185D01*
X39851388Y-28539509D01*
X39721154Y-28669743D01*
X39618830Y-28822882D01*
X39548348Y-28993042D01*
X39514407Y-29163674D01*
X39350000Y-29161928D01*
X39225518Y-29174188D01*
X39105820Y-29210498D01*
X38995506Y-29269463D01*
X38898815Y-29348815D01*
X38819463Y-29445506D01*
X38760498Y-29555820D01*
X38724188Y-29675518D01*
X38711928Y-29800000D01*
X38715000Y-30414250D01*
X38873750Y-30573000D01*
X39798000Y-30573000D01*
X39798000Y-30553000D01*
X40052000Y-30553000D01*
X40052000Y-30573000D01*
X40976250Y-30573000D01*
X41135000Y-30414250D01*
X41136772Y-30060000D01*
X41661928Y-30060000D01*
X41661928Y-30661494D01*
X41490655Y-30832767D01*
X41456882Y-30860484D01*
X41346288Y-30995243D01*
X41264110Y-31148989D01*
X41229504Y-31263069D01*
X41217562Y-31302436D01*
X41213504Y-31315812D01*
X41200699Y-31445825D01*
X41200699Y-31445832D01*
X41196418Y-31489301D01*
X41198173Y-31507120D01*
X41137547Y-31495061D01*
X41135000Y-30985750D01*
X40976250Y-30827000D01*
X40052000Y-30827000D01*
X40052000Y-30847000D01*
X39798000Y-30847000D01*
X39798000Y-30827000D01*
X38873750Y-30827000D01*
X38715000Y-30985750D01*
X38713187Y-31348187D01*
X38657111Y-31371414D01*
X38503972Y-31473738D01*
X38373738Y-31603972D01*
X38271414Y-31757111D01*
X38200932Y-31927271D01*
X38165000Y-32107911D01*
X38165000Y-32273982D01*
X38073815Y-32348815D01*
X37994463Y-32445506D01*
X37935498Y-32555820D01*
X37899188Y-32675518D01*
X37886928Y-32800000D01*
X37890000Y-33414250D01*
X38048750Y-33573000D01*
X38973000Y-33573000D01*
X38973000Y-33553000D01*
X39227000Y-33553000D01*
X39227000Y-33573000D01*
X39247000Y-33573000D01*
X39247000Y-33827000D01*
X39227000Y-33827000D01*
X39227000Y-33847000D01*
X38973000Y-33847000D01*
X38973000Y-33827000D01*
X38048750Y-33827000D01*
X37890000Y-33985750D01*
X37889979Y-33990010D01*
X37691589Y-33990010D01*
X37363072Y-33661494D01*
X37363072Y-33049999D01*
X37346008Y-32876745D01*
X37295472Y-32710149D01*
X37213405Y-32556613D01*
X37102962Y-32422038D01*
X36968387Y-32311595D01*
X36814851Y-32229528D01*
X36735507Y-32205459D01*
X38161003Y-30779964D01*
X38190001Y-30756166D01*
X38284974Y-30640441D01*
X38355546Y-30508412D01*
X38399003Y-30365151D01*
X38410000Y-30253498D01*
X38413677Y-30216165D01*
X38410000Y-30178832D01*
X38410000Y-29335000D01*
X38492089Y-29335000D01*
X38672729Y-29299068D01*
X38842889Y-29228586D01*
X38996028Y-29126262D01*
X39126262Y-28996028D01*
X39228586Y-28842889D01*
X39299068Y-28672729D01*
X39323153Y-28551648D01*
X41136730Y-26738072D01*
X41158443Y-26738072D01*
X41087039Y-26809476D01*
G04 #@! TA.AperFunction,Conductor*
D21*
G36*
X41087039Y-26809476D02*
G01*
X40963341Y-26994602D01*
X40878137Y-27200304D01*
X40834700Y-27418675D01*
X40834700Y-27641325D01*
X40878137Y-27859696D01*
X40963341Y-28065398D01*
X41087039Y-28250524D01*
X41244476Y-28407961D01*
X41429602Y-28531659D01*
X41449739Y-28540000D01*
X41043935Y-28540000D01*
X41043444Y-28539509D01*
X40890305Y-28437185D01*
X40720145Y-28366703D01*
X40539505Y-28330771D01*
X40355327Y-28330771D01*
X40174687Y-28366703D01*
X40004527Y-28437185D01*
X39851388Y-28539509D01*
X39721154Y-28669743D01*
X39618830Y-28822882D01*
X39548348Y-28993042D01*
X39514407Y-29163674D01*
X39350000Y-29161928D01*
X39225518Y-29174188D01*
X39105820Y-29210498D01*
X38995506Y-29269463D01*
X38898815Y-29348815D01*
X38819463Y-29445506D01*
X38760498Y-29555820D01*
X38724188Y-29675518D01*
X38711928Y-29800000D01*
X38715000Y-30414250D01*
X38873750Y-30573000D01*
X39798000Y-30573000D01*
X39798000Y-30553000D01*
X40052000Y-30553000D01*
X40052000Y-30573000D01*
X40976250Y-30573000D01*
X41135000Y-30414250D01*
X41136772Y-30060000D01*
X41661928Y-30060000D01*
X41661928Y-30661494D01*
X41490655Y-30832767D01*
X41456882Y-30860484D01*
X41346288Y-30995243D01*
X41264110Y-31148989D01*
X41229504Y-31263069D01*
X41217562Y-31302436D01*
X41213504Y-31315812D01*
X41200699Y-31445825D01*
X41200699Y-31445832D01*
X41196418Y-31489301D01*
X41198173Y-31507120D01*
X41137547Y-31495061D01*
X41135000Y-30985750D01*
X40976250Y-30827000D01*
X40052000Y-30827000D01*
X40052000Y-30847000D01*
X39798000Y-30847000D01*
X39798000Y-30827000D01*
X38873750Y-30827000D01*
X38715000Y-30985750D01*
X38713187Y-31348187D01*
X38657111Y-31371414D01*
X38503972Y-31473738D01*
X38373738Y-31603972D01*
X38271414Y-31757111D01*
X38200932Y-31927271D01*
X38165000Y-32107911D01*
X38165000Y-32273982D01*
X38073815Y-32348815D01*
X37994463Y-32445506D01*
X37935498Y-32555820D01*
X37899188Y-32675518D01*
X37886928Y-32800000D01*
X37890000Y-33414250D01*
X38048750Y-33573000D01*
X38973000Y-33573000D01*
X38973000Y-33553000D01*
X39227000Y-33553000D01*
X39227000Y-33573000D01*
X39247000Y-33573000D01*
X39247000Y-33827000D01*
X39227000Y-33827000D01*
X39227000Y-33847000D01*
X38973000Y-33847000D01*
X38973000Y-33827000D01*
X38048750Y-33827000D01*
X37890000Y-33985750D01*
X37889979Y-33990010D01*
X37691589Y-33990010D01*
X37363072Y-33661494D01*
X37363072Y-33049999D01*
X37346008Y-32876745D01*
X37295472Y-32710149D01*
X37213405Y-32556613D01*
X37102962Y-32422038D01*
X36968387Y-32311595D01*
X36814851Y-32229528D01*
X36735507Y-32205459D01*
X38161003Y-30779964D01*
X38190001Y-30756166D01*
X38284974Y-30640441D01*
X38355546Y-30508412D01*
X38399003Y-30365151D01*
X38410000Y-30253498D01*
X38413677Y-30216165D01*
X38410000Y-30178832D01*
X38410000Y-29335000D01*
X38492089Y-29335000D01*
X38672729Y-29299068D01*
X38842889Y-29228586D01*
X38996028Y-29126262D01*
X39126262Y-28996028D01*
X39228586Y-28842889D01*
X39299068Y-28672729D01*
X39323153Y-28551648D01*
X41136730Y-26738072D01*
X41158443Y-26738072D01*
X41087039Y-26809476D01*
G37*
G04 #@! TD.AperFunction*
D20*
X43340000Y-24072023D02*
X43237500Y-24061928D01*
X43010750Y-24065000D01*
X42852000Y-24223750D01*
X42852000Y-25273000D01*
X42872000Y-25273000D01*
X42872000Y-25527000D01*
X42852000Y-25527000D01*
X42852000Y-25547000D01*
X42598000Y-25547000D01*
X42598000Y-25527000D01*
X42578000Y-25527000D01*
X42578000Y-25273000D01*
X42598000Y-25273000D01*
X42598000Y-24223750D01*
X42439250Y-24065000D01*
X42212500Y-24061928D01*
X42088018Y-24074188D01*
X41968320Y-24110498D01*
X41858006Y-24169463D01*
X41761315Y-24248815D01*
X41737137Y-24278276D01*
X41701292Y-24248858D01*
X41724004Y-24173985D01*
X41735001Y-24062332D01*
X41735001Y-24062322D01*
X41738677Y-24025000D01*
X41735001Y-23987677D01*
X41735001Y-21061321D01*
X41738677Y-21023998D01*
X41735001Y-20986675D01*
X41735001Y-20986666D01*
X41724004Y-20875013D01*
X41680547Y-20731752D01*
X41642194Y-20660000D01*
X43340000Y-20660000D01*
X43340000Y-24072023D01*
G04 #@! TA.AperFunction,Conductor*
D21*
G36*
X43340000Y-24072023D02*
G01*
X43237500Y-24061928D01*
X43010750Y-24065000D01*
X42852000Y-24223750D01*
X42852000Y-25273000D01*
X42872000Y-25273000D01*
X42872000Y-25527000D01*
X42852000Y-25527000D01*
X42852000Y-25547000D01*
X42598000Y-25547000D01*
X42598000Y-25527000D01*
X42578000Y-25527000D01*
X42578000Y-25273000D01*
X42598000Y-25273000D01*
X42598000Y-24223750D01*
X42439250Y-24065000D01*
X42212500Y-24061928D01*
X42088018Y-24074188D01*
X41968320Y-24110498D01*
X41858006Y-24169463D01*
X41761315Y-24248815D01*
X41737137Y-24278276D01*
X41701292Y-24248858D01*
X41724004Y-24173985D01*
X41735001Y-24062332D01*
X41735001Y-24062322D01*
X41738677Y-24025000D01*
X41735001Y-23987677D01*
X41735001Y-21061321D01*
X41738677Y-21023998D01*
X41735001Y-20986675D01*
X41735001Y-20986666D01*
X41724004Y-20875013D01*
X41680547Y-20731752D01*
X41642194Y-20660000D01*
X43340000Y-20660000D01*
X43340000Y-24072023D01*
G37*
G04 #@! TD.AperFunction*
D20*
X40215001Y-21338801D02*
X40215001Y-21452501D01*
X40179225Y-21434524D01*
X40058649Y-21401246D01*
X39933897Y-21392131D01*
X39785750Y-21395000D01*
X39706710Y-21474040D01*
X39705000Y-21385750D01*
X39546250Y-21227000D01*
X38830000Y-21227000D01*
X38830000Y-21060000D01*
X39936201Y-21060000D01*
X40215001Y-21338801D01*
G04 #@! TA.AperFunction,Conductor*
D21*
G36*
X40215001Y-21338801D02*
G01*
X40215001Y-21452501D01*
X40179225Y-21434524D01*
X40058649Y-21401246D01*
X39933897Y-21392131D01*
X39785750Y-21395000D01*
X39706710Y-21474040D01*
X39705000Y-21385750D01*
X39546250Y-21227000D01*
X38830000Y-21227000D01*
X38830000Y-21060000D01*
X39936201Y-21060000D01*
X40215001Y-21338801D01*
G37*
G04 #@! TD.AperFunction*
M02*
