G04 #@! TF.GenerationSoftware,KiCad,Pcbnew,(5.1.9-0-10_14)*
G04 #@! TF.CreationDate,2021-10-22T14:59:34+02:00*
G04 #@! TF.ProjectId,TFRAS_TOP,54465241-535f-4544-9f50-2e6b69636164,rev?*
G04 #@! TF.SameCoordinates,Original*
G04 #@! TF.FileFunction,Soldermask,Top*
G04 #@! TF.FilePolarity,Negative*
%FSLAX46Y46*%
G04 Gerber Fmt 4.6, Leading zero omitted, Abs format (unit mm)*
G04 Created by KiCad (PCBNEW (5.1.9-0-10_14)) date 2021-10-22 14:59:34*
%MOMM*%
%LPD*%
G01*
G04 APERTURE LIST*
%ADD10O,1.000000X1.000000*%
%ADD11R,1.000000X1.000000*%
%ADD12R,0.400000X1.000000*%
%ADD13R,2.000000X1.300000*%
%ADD14R,0.250000X1.300000*%
%ADD15R,1.300000X0.250000*%
%ADD16C,0.787400*%
%ADD17C,0.990600*%
G04 APERTURE END LIST*
G36*
G01*
X38325000Y-36425000D02*
X38875000Y-36425000D01*
G75*
G02*
X39075000Y-36625000I0J-200000D01*
G01*
X39075000Y-37025000D01*
G75*
G02*
X38875000Y-37225000I-200000J0D01*
G01*
X38325000Y-37225000D01*
G75*
G02*
X38125000Y-37025000I0J200000D01*
G01*
X38125000Y-36625000D01*
G75*
G02*
X38325000Y-36425000I200000J0D01*
G01*
G37*
G36*
G01*
X38325000Y-34775000D02*
X38875000Y-34775000D01*
G75*
G02*
X39075000Y-34975000I0J-200000D01*
G01*
X39075000Y-35375000D01*
G75*
G02*
X38875000Y-35575000I-200000J0D01*
G01*
X38325000Y-35575000D01*
G75*
G02*
X38125000Y-35375000I0J200000D01*
G01*
X38125000Y-34975000D01*
G75*
G02*
X38325000Y-34775000I200000J0D01*
G01*
G37*
D10*
X42600000Y-34100000D03*
D11*
X41330000Y-34100000D03*
D10*
X22500000Y-36900000D03*
D11*
X23770000Y-36900000D03*
G36*
G01*
X23900000Y-33650001D02*
X23900000Y-32749999D01*
G75*
G02*
X24149999Y-32500000I249999J0D01*
G01*
X24850001Y-32500000D01*
G75*
G02*
X25100000Y-32749999I0J-249999D01*
G01*
X25100000Y-33650001D01*
G75*
G02*
X24850001Y-33900000I-249999J0D01*
G01*
X24149999Y-33900000D01*
G75*
G02*
X23900000Y-33650001I0J249999D01*
G01*
G37*
G36*
G01*
X21900000Y-33650001D02*
X21900000Y-32749999D01*
G75*
G02*
X22149999Y-32500000I249999J0D01*
G01*
X22850001Y-32500000D01*
G75*
G02*
X23100000Y-32749999I0J-249999D01*
G01*
X23100000Y-33650001D01*
G75*
G02*
X22850001Y-33900000I-249999J0D01*
G01*
X22149999Y-33900000D01*
G75*
G02*
X21900000Y-33650001I0J249999D01*
G01*
G37*
D12*
X40000000Y-38890000D03*
X39000000Y-38890000D03*
X38000000Y-38890000D03*
X37000000Y-38890000D03*
X36000000Y-38890000D03*
X35000000Y-38890000D03*
X34000000Y-38890000D03*
X33000000Y-38890000D03*
X32000000Y-38890000D03*
X31000000Y-38890000D03*
X30000000Y-38890000D03*
X29000000Y-38890000D03*
X28000000Y-38890000D03*
X27000000Y-38890000D03*
X26000000Y-38890000D03*
X25000000Y-38890000D03*
X24000000Y-38890000D03*
D13*
X42800000Y-41590000D03*
X21200000Y-41590000D03*
D14*
X29450000Y-27850000D03*
X29950000Y-27850000D03*
X30450000Y-27850000D03*
X30950000Y-27850000D03*
X31450000Y-27850000D03*
X31950000Y-27850000D03*
X32450000Y-27850000D03*
X32950000Y-27850000D03*
X33450000Y-27850000D03*
X33950000Y-27850000D03*
X34450000Y-27850000D03*
X34950000Y-27850000D03*
D15*
X36550000Y-29450000D03*
X36550000Y-29950000D03*
X36550000Y-30450000D03*
X36550000Y-30950000D03*
X36550000Y-31450000D03*
X36550000Y-31950000D03*
X36550000Y-32450000D03*
X36550000Y-32950000D03*
X36550000Y-33450000D03*
X36550000Y-33950000D03*
X36550000Y-34450000D03*
X36550000Y-34950000D03*
D14*
X34950000Y-36550000D03*
X34450000Y-36550000D03*
X33950000Y-36550000D03*
X33450000Y-36550000D03*
X32950000Y-36550000D03*
X32450000Y-36550000D03*
X31950000Y-36550000D03*
X31450000Y-36550000D03*
X30950000Y-36550000D03*
X30450000Y-36550000D03*
X29950000Y-36550000D03*
X29450000Y-36550000D03*
D15*
X27850000Y-34950000D03*
X27850000Y-34450000D03*
X27850000Y-33950000D03*
X27850000Y-33450000D03*
X27850000Y-32950000D03*
X27850000Y-32450000D03*
X27850000Y-31950000D03*
X27850000Y-31450000D03*
X27850000Y-30950000D03*
X27850000Y-30450000D03*
X27850000Y-29950000D03*
X27850000Y-29450000D03*
G36*
G01*
X38170000Y-33000000D02*
X37830000Y-33000000D01*
G75*
G02*
X37690000Y-32860000I0J140000D01*
G01*
X37690000Y-32580000D01*
G75*
G02*
X37830000Y-32440000I140000J0D01*
G01*
X38170000Y-32440000D01*
G75*
G02*
X38310000Y-32580000I0J-140000D01*
G01*
X38310000Y-32860000D01*
G75*
G02*
X38170000Y-33000000I-140000J0D01*
G01*
G37*
G36*
G01*
X38170000Y-33960000D02*
X37830000Y-33960000D01*
G75*
G02*
X37690000Y-33820000I0J140000D01*
G01*
X37690000Y-33540000D01*
G75*
G02*
X37830000Y-33400000I140000J0D01*
G01*
X38170000Y-33400000D01*
G75*
G02*
X38310000Y-33540000I0J-140000D01*
G01*
X38310000Y-33820000D01*
G75*
G02*
X38170000Y-33960000I-140000J0D01*
G01*
G37*
D16*
X42600000Y-31340000D03*
X41330000Y-31340000D03*
X42600000Y-30070000D03*
X41330000Y-30070000D03*
X42600000Y-28800000D03*
X41330000Y-28800000D03*
D17*
X41965000Y-27530000D03*
X40949000Y-32610000D03*
X42981000Y-32610000D03*
G36*
G01*
X40270000Y-36315000D02*
X40270000Y-36685000D01*
G75*
G02*
X40135000Y-36820000I-135000J0D01*
G01*
X39865000Y-36820000D01*
G75*
G02*
X39730000Y-36685000I0J135000D01*
G01*
X39730000Y-36315000D01*
G75*
G02*
X39865000Y-36180000I135000J0D01*
G01*
X40135000Y-36180000D01*
G75*
G02*
X40270000Y-36315000I0J-135000D01*
G01*
G37*
G36*
G01*
X41290000Y-36315000D02*
X41290000Y-36685000D01*
G75*
G02*
X41155000Y-36820000I-135000J0D01*
G01*
X40885000Y-36820000D01*
G75*
G02*
X40750000Y-36685000I0J135000D01*
G01*
X40750000Y-36315000D01*
G75*
G02*
X40885000Y-36180000I135000J0D01*
G01*
X41155000Y-36180000D01*
G75*
G02*
X41290000Y-36315000I0J-135000D01*
G01*
G37*
D12*
X24000000Y-25110000D03*
X25000000Y-25110000D03*
X26000000Y-25110000D03*
X27000000Y-25110000D03*
X28000000Y-25110000D03*
X29000000Y-25110000D03*
X30000000Y-25110000D03*
X31000000Y-25110000D03*
X32000000Y-25110000D03*
X33000000Y-25110000D03*
X34000000Y-25110000D03*
X35000000Y-25110000D03*
X36000000Y-25110000D03*
X37000000Y-25110000D03*
X38000000Y-25110000D03*
X39000000Y-25110000D03*
X40000000Y-25110000D03*
D13*
X21200000Y-22410000D03*
X42800000Y-22410000D03*
M02*
