%TF.GenerationSoftware,KiCad,Pcbnew,(5.1.9)-1*%
%TF.CreationDate,2021-06-28T16:38:31+02:00*%
%TF.ProjectId,TFRAS,54465241-532e-46b6-9963-61645f706362,rev?*%
%TF.SameCoordinates,Original*%
%TF.FileFunction,Copper,L4,Bot*%
%TF.FilePolarity,Positive*%
%FSLAX46Y46*%
G04 Gerber Fmt 4.6, Leading zero omitted, Abs format (unit mm)*
G04 Created by KiCad (PCBNEW (5.1.9)-1) date 2021-06-28 16:38:31*
%MOMM*%
%LPD*%
G01*
G04 APERTURE LIST*
%TA.AperFunction,ViaPad*%
%ADD10C,0.800000*%
%TD*%
%TA.AperFunction,Conductor*%
%ADD11C,0.250000*%
%TD*%
%TA.AperFunction,NonConductor*%
%ADD12C,0.254000*%
%TD*%
%TA.AperFunction,NonConductor*%
%ADD13C,0.100000*%
%TD*%
G04 APERTURE END LIST*
%TO.P,Rb,2*%
%TO.N,N/C*%
%TA.AperFunction,SMDPad,CuDef*%
G36*
G01*
X-178800000Y-472825001D02*
X-178800000Y-471574999D01*
G75*
G02*
X-178550001Y-471325000I249999J0D01*
G01*
X-177924999Y-471325000D01*
G75*
G02*
X-177675000Y-471574999I0J-249999D01*
G01*
X-177675000Y-472825001D01*
G75*
G02*
X-177924999Y-473075000I-249999J0D01*
G01*
X-178550001Y-473075000D01*
G75*
G02*
X-178800000Y-472825001I0J249999D01*
G01*
G37*
%TD.AperFunction*%
%TO.P,Rb,1*%
%TA.AperFunction,SMDPad,CuDef*%
G36*
G01*
X-181725000Y-472825001D02*
X-181725000Y-471574999D01*
G75*
G02*
X-181475001Y-471325000I249999J0D01*
G01*
X-180849999Y-471325000D01*
G75*
G02*
X-180600000Y-471574999I0J-249999D01*
G01*
X-180600000Y-472825001D01*
G75*
G02*
X-180849999Y-473075000I-249999J0D01*
G01*
X-181475001Y-473075000D01*
G75*
G02*
X-181725000Y-472825001I0J249999D01*
G01*
G37*
%TD.AperFunction*%
%TD*%
D10*
%TO.N,*%
X-181200000Y-470600000D03*
X-178200000Y-470600000D03*
X-195300000Y-467300000D03*
X-195300000Y-369900000D03*
X-195300000Y-270000000D03*
X-195300000Y-170000000D03*
%TD*%
D11*
%TO.N,*%
X-181200000Y-472162500D02*
X-181162500Y-472200000D01*
X-181200000Y-470600000D02*
X-181200000Y-472162500D01*
X-178200000Y-472162500D02*
X-178237500Y-472200000D01*
X-178200000Y-470600000D02*
X-178200000Y-472162500D01*
%TD*%
D12*
X-176660000Y-475340000D02*
X-199340000Y-475340000D01*
X-199340000Y-471574999D01*
X-182363072Y-471574999D01*
X-182363072Y-472825001D01*
X-182346008Y-472998255D01*
X-182295472Y-473164851D01*
X-182213405Y-473318387D01*
X-182102962Y-473452962D01*
X-181968387Y-473563405D01*
X-181814851Y-473645472D01*
X-181648255Y-473696008D01*
X-181475001Y-473713072D01*
X-180849999Y-473713072D01*
X-180676745Y-473696008D01*
X-180510149Y-473645472D01*
X-180356613Y-473563405D01*
X-180222038Y-473452962D01*
X-180111595Y-473318387D01*
X-180029528Y-473164851D01*
X-179978992Y-472998255D01*
X-179961928Y-472825001D01*
X-179961928Y-471574999D01*
X-179438072Y-471574999D01*
X-179438072Y-472825001D01*
X-179421008Y-472998255D01*
X-179370472Y-473164851D01*
X-179288405Y-473318387D01*
X-179177962Y-473452962D01*
X-179043387Y-473563405D01*
X-178889851Y-473645472D01*
X-178723255Y-473696008D01*
X-178550001Y-473713072D01*
X-177924999Y-473713072D01*
X-177751745Y-473696008D01*
X-177585149Y-473645472D01*
X-177431613Y-473563405D01*
X-177297038Y-473452962D01*
X-177186595Y-473318387D01*
X-177104528Y-473164851D01*
X-177053992Y-472998255D01*
X-177036928Y-472825001D01*
X-177036928Y-471574999D01*
X-177053992Y-471401745D01*
X-177104528Y-471235149D01*
X-177186595Y-471081613D01*
X-177248148Y-471006611D01*
X-177204774Y-470901898D01*
X-177165000Y-470701939D01*
X-177165000Y-470498061D01*
X-177204774Y-470298102D01*
X-177282795Y-470109744D01*
X-177396063Y-469940226D01*
X-177540226Y-469796063D01*
X-177709744Y-469682795D01*
X-177898102Y-469604774D01*
X-178098061Y-469565000D01*
X-178301939Y-469565000D01*
X-178501898Y-469604774D01*
X-178690256Y-469682795D01*
X-178859774Y-469796063D01*
X-179003937Y-469940226D01*
X-179117205Y-470109744D01*
X-179195226Y-470298102D01*
X-179235000Y-470498061D01*
X-179235000Y-470701939D01*
X-179195226Y-470901898D01*
X-179176892Y-470946160D01*
X-179177962Y-470947038D01*
X-179288405Y-471081613D01*
X-179370472Y-471235149D01*
X-179421008Y-471401745D01*
X-179438072Y-471574999D01*
X-179961928Y-471574999D01*
X-179978992Y-471401745D01*
X-180029528Y-471235149D01*
X-180111595Y-471081613D01*
X-180222038Y-470947038D01*
X-180223108Y-470946160D01*
X-180204774Y-470901898D01*
X-180165000Y-470701939D01*
X-180165000Y-470498061D01*
X-180204774Y-470298102D01*
X-180282795Y-470109744D01*
X-180396063Y-469940226D01*
X-180540226Y-469796063D01*
X-180709744Y-469682795D01*
X-180898102Y-469604774D01*
X-181098061Y-469565000D01*
X-181301939Y-469565000D01*
X-181501898Y-469604774D01*
X-181690256Y-469682795D01*
X-181859774Y-469796063D01*
X-182003937Y-469940226D01*
X-182117205Y-470109744D01*
X-182195226Y-470298102D01*
X-182235000Y-470498061D01*
X-182235000Y-470701939D01*
X-182195226Y-470901898D01*
X-182151852Y-471006611D01*
X-182213405Y-471081613D01*
X-182295472Y-471235149D01*
X-182346008Y-471401745D01*
X-182363072Y-471574999D01*
X-199340000Y-471574999D01*
X-199340000Y-660000D01*
X-176659999Y-660000D01*
X-176660000Y-475340000D01*
%TA.AperFunction,NonConductor*%
D13*
G36*
X-176660000Y-475340000D02*
G01*
X-199340000Y-475340000D01*
X-199340000Y-471574999D01*
X-182363072Y-471574999D01*
X-182363072Y-472825001D01*
X-182346008Y-472998255D01*
X-182295472Y-473164851D01*
X-182213405Y-473318387D01*
X-182102962Y-473452962D01*
X-181968387Y-473563405D01*
X-181814851Y-473645472D01*
X-181648255Y-473696008D01*
X-181475001Y-473713072D01*
X-180849999Y-473713072D01*
X-180676745Y-473696008D01*
X-180510149Y-473645472D01*
X-180356613Y-473563405D01*
X-180222038Y-473452962D01*
X-180111595Y-473318387D01*
X-180029528Y-473164851D01*
X-179978992Y-472998255D01*
X-179961928Y-472825001D01*
X-179961928Y-471574999D01*
X-179438072Y-471574999D01*
X-179438072Y-472825001D01*
X-179421008Y-472998255D01*
X-179370472Y-473164851D01*
X-179288405Y-473318387D01*
X-179177962Y-473452962D01*
X-179043387Y-473563405D01*
X-178889851Y-473645472D01*
X-178723255Y-473696008D01*
X-178550001Y-473713072D01*
X-177924999Y-473713072D01*
X-177751745Y-473696008D01*
X-177585149Y-473645472D01*
X-177431613Y-473563405D01*
X-177297038Y-473452962D01*
X-177186595Y-473318387D01*
X-177104528Y-473164851D01*
X-177053992Y-472998255D01*
X-177036928Y-472825001D01*
X-177036928Y-471574999D01*
X-177053992Y-471401745D01*
X-177104528Y-471235149D01*
X-177186595Y-471081613D01*
X-177248148Y-471006611D01*
X-177204774Y-470901898D01*
X-177165000Y-470701939D01*
X-177165000Y-470498061D01*
X-177204774Y-470298102D01*
X-177282795Y-470109744D01*
X-177396063Y-469940226D01*
X-177540226Y-469796063D01*
X-177709744Y-469682795D01*
X-177898102Y-469604774D01*
X-178098061Y-469565000D01*
X-178301939Y-469565000D01*
X-178501898Y-469604774D01*
X-178690256Y-469682795D01*
X-178859774Y-469796063D01*
X-179003937Y-469940226D01*
X-179117205Y-470109744D01*
X-179195226Y-470298102D01*
X-179235000Y-470498061D01*
X-179235000Y-470701939D01*
X-179195226Y-470901898D01*
X-179176892Y-470946160D01*
X-179177962Y-470947038D01*
X-179288405Y-471081613D01*
X-179370472Y-471235149D01*
X-179421008Y-471401745D01*
X-179438072Y-471574999D01*
X-179961928Y-471574999D01*
X-179978992Y-471401745D01*
X-180029528Y-471235149D01*
X-180111595Y-471081613D01*
X-180222038Y-470947038D01*
X-180223108Y-470946160D01*
X-180204774Y-470901898D01*
X-180165000Y-470701939D01*
X-180165000Y-470498061D01*
X-180204774Y-470298102D01*
X-180282795Y-470109744D01*
X-180396063Y-469940226D01*
X-180540226Y-469796063D01*
X-180709744Y-469682795D01*
X-180898102Y-469604774D01*
X-181098061Y-469565000D01*
X-181301939Y-469565000D01*
X-181501898Y-469604774D01*
X-181690256Y-469682795D01*
X-181859774Y-469796063D01*
X-182003937Y-469940226D01*
X-182117205Y-470109744D01*
X-182195226Y-470298102D01*
X-182235000Y-470498061D01*
X-182235000Y-470701939D01*
X-182195226Y-470901898D01*
X-182151852Y-471006611D01*
X-182213405Y-471081613D01*
X-182295472Y-471235149D01*
X-182346008Y-471401745D01*
X-182363072Y-471574999D01*
X-199340000Y-471574999D01*
X-199340000Y-660000D01*
X-176659999Y-660000D01*
X-176660000Y-475340000D01*
G37*
%TD.AperFunction*%
M02*
