M48
; DRILL file {KiCad (5.1.9)-1} date 06/28/21 16:38:38
; FORMAT={-:-/ absolute / metric / decimal}
; #@! TF.CreationDate,2021-06-28T16:38:38+02:00
; #@! TF.GenerationSoftware,Kicad,Pcbnew,(5.1.9)-1
; #@! TF.FileFunction,Plated,1,2,Blind
FMAT,2
METRIC
T1C0.400
%
G90
G05
T1
X-198.8Y-3.9
X-198.2Y-4.6
X-197.6Y-3.9
X-197.0Y-4.6
X-196.4Y-3.9
X-195.8Y-4.6
X-195.2Y-3.9
X-194.6Y-4.6
X-194.0Y-3.9
X-193.4Y-4.6
X-192.8Y-5.3
X-192.2Y-4.6
X-191.6Y-5.3
X-191.0Y-4.6
X-190.4Y-5.3
X-189.8Y-4.6
X-189.2Y-3.9
X-188.6Y-4.6
X-188.0Y-20.0
X-188.0Y-30.0
X-188.0Y-40.0
X-188.0Y-50.0
X-188.0Y-60.0
X-188.0Y-70.0
X-188.0Y-80.0
X-188.0Y-90.0
X-188.0Y-100.0
X-188.0Y-110.0
X-188.0Y-120.0
X-188.0Y-130.0
X-188.0Y-140.0
X-188.0Y-150.0
X-188.0Y-160.0
X-188.0Y-170.0
X-188.0Y-180.0
X-188.0Y-190.0
X-188.0Y-200.0
X-188.0Y-210.0
X-188.0Y-220.0
X-188.0Y-230.0
X-188.0Y-240.0
X-188.0Y-250.0
X-188.0Y-260.0
X-188.0Y-270.0
X-188.0Y-280.0
X-188.0Y-290.0
X-188.0Y-300.0
X-188.0Y-310.0
X-188.0Y-320.0
X-188.0Y-330.0
X-188.0Y-340.0
X-188.0Y-350.0
X-188.0Y-360.0
X-188.0Y-370.0
X-187.4Y-4.6
X-186.8Y-3.9
X-186.2Y-4.6
X-185.6Y-5.3
X-185.0Y-4.6
X-184.4Y-5.3
X-183.8Y-4.6
X-183.2Y-5.3
X-182.6Y-4.6
X-182.0Y-3.9
X-181.4Y-4.6
X-180.8Y-3.9
X-180.2Y-4.6
X-179.6Y-3.9
X-179.0Y-4.6
X-178.4Y-3.9
X-177.8Y-4.6
X-177.2Y-3.9
T0
M30
