%TF.GenerationSoftware,KiCad,Pcbnew,(5.1.9)-1*%
%TF.CreationDate,2021-06-28T16:38:32+02:00*%
%TF.ProjectId,TFRAS,54465241-532e-46b6-9963-61645f706362,rev?*%
%TF.SameCoordinates,Original*%
%TF.FileFunction,Paste,Top*%
%TF.FilePolarity,Positive*%
%FSLAX46Y46*%
G04 Gerber Fmt 4.6, Leading zero omitted, Abs format (unit mm)*
G04 Created by KiCad (PCBNEW (5.1.9)-1) date 2021-06-28 16:38:32*
%MOMM*%
%LPD*%
G01*
G04 APERTURE LIST*
%ADD10R,0.300000X1.100000*%
G04 APERTURE END LIST*
D10*
%TO.C,J1*%
X-178250000Y-6750000D03*
X-178750000Y-6750000D03*
X-179250000Y-6750000D03*
X-179750000Y-6750000D03*
X-180250000Y-6750000D03*
X-180750000Y-6750000D03*
X-181250000Y-6750000D03*
X-181750000Y-6750000D03*
X-182250000Y-6750000D03*
X-182750000Y-6750000D03*
X-183250000Y-6750000D03*
X-183750000Y-6750000D03*
X-184250000Y-6750000D03*
X-184750000Y-6750000D03*
X-185250000Y-6750000D03*
X-185750000Y-6750000D03*
X-186250000Y-6750000D03*
X-186750000Y-6750000D03*
X-187250000Y-6750000D03*
X-187750000Y-6750000D03*
X-188250000Y-6750000D03*
X-188750000Y-6750000D03*
X-189250000Y-6750000D03*
X-189750000Y-6750000D03*
X-190250000Y-6750000D03*
X-190750000Y-6750000D03*
X-191250000Y-6750000D03*
X-191750000Y-6750000D03*
X-192250000Y-6750000D03*
X-192750000Y-6750000D03*
X-193250000Y-6750000D03*
X-193750000Y-6750000D03*
X-194250000Y-6750000D03*
X-194750000Y-6750000D03*
X-195250000Y-6750000D03*
X-195750000Y-6750000D03*
X-196250000Y-6750000D03*
X-196750000Y-6750000D03*
X-197250000Y-6750000D03*
X-197750000Y-6750000D03*
X-178250000Y-1250000D03*
X-178750000Y-1250000D03*
X-179250000Y-1250000D03*
X-179750000Y-1250000D03*
X-180250000Y-1250000D03*
X-180750000Y-1250000D03*
X-181250000Y-1250000D03*
X-181750000Y-1250000D03*
X-182250000Y-1250000D03*
X-182750000Y-1250000D03*
X-183250000Y-1250000D03*
X-183750000Y-1250000D03*
X-184250000Y-1250000D03*
X-184750000Y-1250000D03*
X-185250000Y-1250000D03*
X-185750000Y-1250000D03*
X-186250000Y-1250000D03*
X-186750000Y-1250000D03*
X-187250000Y-1250000D03*
X-187750000Y-1250000D03*
X-188250000Y-1250000D03*
X-188750000Y-1250000D03*
X-189250000Y-1250000D03*
X-189750000Y-1250000D03*
X-190250000Y-1250000D03*
X-190750000Y-1250000D03*
X-191250000Y-1250000D03*
X-191750000Y-1250000D03*
X-192250000Y-1250000D03*
X-192750000Y-1250000D03*
X-193250000Y-1250000D03*
X-193750000Y-1250000D03*
X-194250000Y-1250000D03*
X-194750000Y-1250000D03*
X-195250000Y-1250000D03*
X-195750000Y-1250000D03*
X-196250000Y-1250000D03*
X-196750000Y-1250000D03*
X-197250000Y-1250000D03*
X-197750000Y-1250000D03*
%TD*%
%TO.C,J2*%
X-178250000Y-474850000D03*
X-178750000Y-474850000D03*
X-179250000Y-474850000D03*
X-179750000Y-474850000D03*
X-180250000Y-474850000D03*
X-180750000Y-474850000D03*
X-181250000Y-474850000D03*
X-181750000Y-474850000D03*
X-182250000Y-474850000D03*
X-182750000Y-474850000D03*
X-183250000Y-474850000D03*
X-183750000Y-474850000D03*
X-184250000Y-474850000D03*
X-184750000Y-474850000D03*
X-185250000Y-474850000D03*
X-185750000Y-474850000D03*
X-186250000Y-474850000D03*
X-186750000Y-474850000D03*
X-187250000Y-474850000D03*
X-187750000Y-474850000D03*
X-188250000Y-474850000D03*
X-188750000Y-474850000D03*
X-189250000Y-474850000D03*
X-189750000Y-474850000D03*
X-190250000Y-474850000D03*
X-190750000Y-474850000D03*
X-191250000Y-474850000D03*
X-191750000Y-474850000D03*
X-192250000Y-474850000D03*
X-192750000Y-474850000D03*
X-193250000Y-474850000D03*
X-193750000Y-474850000D03*
X-194250000Y-474850000D03*
X-194750000Y-474850000D03*
X-195250000Y-474850000D03*
X-195750000Y-474850000D03*
X-196250000Y-474850000D03*
X-196750000Y-474850000D03*
X-197250000Y-474850000D03*
X-197750000Y-474850000D03*
X-178250000Y-469350000D03*
X-178750000Y-469350000D03*
X-179250000Y-469350000D03*
X-179750000Y-469350000D03*
X-180250000Y-469350000D03*
X-180750000Y-469350000D03*
X-181250000Y-469350000D03*
X-181750000Y-469350000D03*
X-182250000Y-469350000D03*
X-182750000Y-469350000D03*
X-183250000Y-469350000D03*
X-183750000Y-469350000D03*
X-184250000Y-469350000D03*
X-184750000Y-469350000D03*
X-185250000Y-469350000D03*
X-185750000Y-469350000D03*
X-186250000Y-469350000D03*
X-186750000Y-469350000D03*
X-187250000Y-469350000D03*
X-187750000Y-469350000D03*
X-188250000Y-469350000D03*
X-188750000Y-469350000D03*
X-189250000Y-469350000D03*
X-189750000Y-469350000D03*
X-190250000Y-469350000D03*
X-190750000Y-469350000D03*
X-191250000Y-469350000D03*
X-191750000Y-469350000D03*
X-192250000Y-469350000D03*
X-192750000Y-469350000D03*
X-193250000Y-469350000D03*
X-193750000Y-469350000D03*
X-194250000Y-469350000D03*
X-194750000Y-469350000D03*
X-195250000Y-469350000D03*
X-195750000Y-469350000D03*
X-196250000Y-469350000D03*
X-196750000Y-469350000D03*
X-197250000Y-469350000D03*
X-197750000Y-469350000D03*
%TD*%
M02*
