%TF.GenerationSoftware,KiCad,Pcbnew,(5.1.9)-1*%
%TF.CreationDate,2021-06-28T16:38:32+02:00*%
%TF.ProjectId,TFRAS,54465241-532e-46b6-9963-61645f706362,rev?*%
%TF.SameCoordinates,Original*%
%TF.FileFunction,Legend,Top*%
%TF.FilePolarity,Positive*%
%FSLAX46Y46*%
G04 Gerber Fmt 4.6, Leading zero omitted, Abs format (unit mm)*
G04 Created by KiCad (PCBNEW (5.1.9)-1) date 2021-06-28 16:38:32*
%MOMM*%
%LPD*%
G01*
G04 APERTURE LIST*
%ADD10C,0.120000*%
%ADD11C,0.150000*%
G04 APERTURE END LIST*
D10*
%TO.C,J1*%
X-176590000Y-1390000D02*
X-177840000Y-1390000D01*
X-176590000Y-6610000D02*
X-176590000Y-1390000D01*
X-177840000Y-6610000D02*
X-176590000Y-6610000D01*
X-198160000Y-1390000D02*
X-198160000Y-700000D01*
X-199410000Y-1390000D02*
X-198160000Y-1390000D01*
X-199410000Y-6610000D02*
X-199410000Y-1390000D01*
X-198160000Y-6610000D02*
X-199410000Y-6610000D01*
%TO.C,J2*%
X-176590000Y-469490000D02*
X-177840000Y-469490000D01*
X-176590000Y-474710000D02*
X-176590000Y-469490000D01*
X-177840000Y-474710000D02*
X-176590000Y-474710000D01*
X-198160000Y-469490000D02*
X-198160000Y-468800000D01*
X-199410000Y-469490000D02*
X-198160000Y-469490000D01*
X-199410000Y-474710000D02*
X-199410000Y-469490000D01*
X-198160000Y-474710000D02*
X-199410000Y-474710000D01*
%TO.C,J1*%
D11*
X-187133333Y-8052380D02*
X-187133333Y-8766666D01*
X-187180952Y-8909523D01*
X-187276190Y-9004761D01*
X-187419047Y-9052380D01*
X-187514285Y-9052380D01*
X-186133333Y-9052380D02*
X-186704761Y-9052380D01*
X-186419047Y-9052380D02*
X-186419047Y-8052380D01*
X-186514285Y-8195238D01*
X-186609523Y-8290476D01*
X-186704761Y-8338095D01*
%TO.C,J2*%
X-186433333Y-467052380D02*
X-186433333Y-467766666D01*
X-186480952Y-467909523D01*
X-186576190Y-468004761D01*
X-186719047Y-468052380D01*
X-186814285Y-468052380D01*
X-186004761Y-467147619D02*
X-185957142Y-467100000D01*
X-185861904Y-467052380D01*
X-185623809Y-467052380D01*
X-185528571Y-467100000D01*
X-185480952Y-467147619D01*
X-185433333Y-467242857D01*
X-185433333Y-467338095D01*
X-185480952Y-467480952D01*
X-186052380Y-468052380D01*
X-185433333Y-468052380D01*
%TD*%
M02*
