%TF.GenerationSoftware,KiCad,Pcbnew,(5.1.9)-1*%
%TF.CreationDate,2021-06-28T16:38:31+02:00*%
%TF.ProjectId,TFRAS,54465241-532e-46b6-9963-61645f706362,rev?*%
%TF.SameCoordinates,Original*%
%TF.FileFunction,Copper,L1,Top*%
%TF.FilePolarity,Positive*%
%FSLAX46Y46*%
G04 Gerber Fmt 4.6, Leading zero omitted, Abs format (unit mm)*
G04 Created by KiCad (PCBNEW (5.1.9)-1) date 2021-06-28 16:38:31*
%MOMM*%
%LPD*%
G01*
G04 APERTURE LIST*
%TA.AperFunction,SMDPad,CuDef*%
%ADD10R,0.300000X1.100000*%
%TD*%
%TA.AperFunction,ViaPad*%
%ADD11C,0.800000*%
%TD*%
%TA.AperFunction,Conductor*%
%ADD12C,0.250000*%
%TD*%
%TA.AperFunction,Conductor*%
%ADD13C,1.000000*%
%TD*%
%TA.AperFunction,Conductor*%
%ADD14C,1.500000*%
%TD*%
G04 APERTURE END LIST*
D10*
%TO.P,J1,80*%
%TO.N,N/C*%
X-178250000Y-6750000D03*
%TO.P,J1,78*%
X-178750000Y-6750000D03*
%TO.P,J1,76*%
X-179250000Y-6750000D03*
%TO.P,J1,74*%
X-179750000Y-6750000D03*
%TO.P,J1,72*%
X-180250000Y-6750000D03*
%TO.P,J1,70*%
X-180750000Y-6750000D03*
%TO.P,J1,68*%
X-181250000Y-6750000D03*
%TO.P,J1,66*%
X-181750000Y-6750000D03*
%TO.P,J1,64*%
X-182250000Y-6750000D03*
%TO.P,J1,62*%
X-182750000Y-6750000D03*
%TO.P,J1,60*%
X-183250000Y-6750000D03*
%TO.P,J1,58*%
X-183750000Y-6750000D03*
%TO.P,J1,56*%
X-184250000Y-6750000D03*
%TO.P,J1,54*%
X-184750000Y-6750000D03*
%TO.P,J1,52*%
X-185250000Y-6750000D03*
%TO.P,J1,50*%
X-185750000Y-6750000D03*
%TO.P,J1,48*%
X-186250000Y-6750000D03*
%TO.P,J1,46*%
X-186750000Y-6750000D03*
%TO.P,J1,44*%
X-187250000Y-6750000D03*
%TO.P,J1,42*%
X-187750000Y-6750000D03*
%TO.P,J1,40*%
X-188250000Y-6750000D03*
%TO.P,J1,38*%
X-188750000Y-6750000D03*
%TO.P,J1,36*%
X-189250000Y-6750000D03*
%TO.P,J1,34*%
X-189750000Y-6750000D03*
%TO.P,J1,32*%
X-190250000Y-6750000D03*
%TO.P,J1,30*%
X-190750000Y-6750000D03*
%TO.P,J1,28*%
X-191250000Y-6750000D03*
%TO.P,J1,26*%
X-191750000Y-6750000D03*
%TO.P,J1,24*%
X-192250000Y-6750000D03*
%TO.P,J1,22*%
X-192750000Y-6750000D03*
%TO.P,J1,20*%
X-193250000Y-6750000D03*
%TO.P,J1,18*%
X-193750000Y-6750000D03*
%TO.P,J1,16*%
X-194250000Y-6750000D03*
%TO.P,J1,14*%
X-194750000Y-6750000D03*
%TO.P,J1,12*%
X-195250000Y-6750000D03*
%TO.P,J1,10*%
X-195750000Y-6750000D03*
%TO.P,J1,8*%
X-196250000Y-6750000D03*
%TO.P,J1,6*%
X-196750000Y-6750000D03*
%TO.P,J1,4*%
X-197250000Y-6750000D03*
%TO.P,J1,2*%
X-197750000Y-6750000D03*
%TO.P,J1,79*%
X-178250000Y-1250000D03*
%TO.P,J1,77*%
X-178750000Y-1250000D03*
%TO.P,J1,75*%
X-179250000Y-1250000D03*
%TO.P,J1,73*%
X-179750000Y-1250000D03*
%TO.P,J1,71*%
X-180250000Y-1250000D03*
%TO.P,J1,69*%
X-180750000Y-1250000D03*
%TO.P,J1,67*%
X-181250000Y-1250000D03*
%TO.P,J1,65*%
X-181750000Y-1250000D03*
%TO.P,J1,63*%
X-182250000Y-1250000D03*
%TO.P,J1,61*%
X-182750000Y-1250000D03*
%TO.P,J1,59*%
X-183250000Y-1250000D03*
%TO.P,J1,57*%
X-183750000Y-1250000D03*
%TO.P,J1,55*%
X-184250000Y-1250000D03*
%TO.P,J1,53*%
X-184750000Y-1250000D03*
%TO.P,J1,51*%
X-185250000Y-1250000D03*
%TO.P,J1,49*%
X-185750000Y-1250000D03*
%TO.P,J1,47*%
X-186250000Y-1250000D03*
%TO.P,J1,45*%
X-186750000Y-1250000D03*
%TO.P,J1,43*%
X-187250000Y-1250000D03*
%TO.P,J1,41*%
X-187750000Y-1250000D03*
%TO.P,J1,39*%
X-188250000Y-1250000D03*
%TO.P,J1,37*%
X-188750000Y-1250000D03*
%TO.P,J1,35*%
X-189250000Y-1250000D03*
%TO.P,J1,33*%
X-189750000Y-1250000D03*
%TO.P,J1,31*%
X-190250000Y-1250000D03*
%TO.P,J1,29*%
X-190750000Y-1250000D03*
%TO.P,J1,27*%
X-191250000Y-1250000D03*
%TO.P,J1,25*%
X-191750000Y-1250000D03*
%TO.P,J1,23*%
X-192250000Y-1250000D03*
%TO.P,J1,21*%
X-192750000Y-1250000D03*
%TO.P,J1,19*%
X-193250000Y-1250000D03*
%TO.P,J1,17*%
X-193750000Y-1250000D03*
%TO.P,J1,15*%
X-194250000Y-1250000D03*
%TO.P,J1,13*%
X-194750000Y-1250000D03*
%TO.P,J1,11*%
X-195250000Y-1250000D03*
%TO.P,J1,9*%
X-195750000Y-1250000D03*
%TO.P,J1,7*%
X-196250000Y-1250000D03*
%TO.P,J1,5*%
X-196750000Y-1250000D03*
%TO.P,J1,3*%
X-197250000Y-1250000D03*
%TO.P,J1,1*%
X-197750000Y-1250000D03*
%TD*%
%TO.P,J2,80*%
%TO.N,N/C*%
X-178250000Y-474850000D03*
%TO.P,J2,78*%
X-178750000Y-474850000D03*
%TO.P,J2,76*%
X-179250000Y-474850000D03*
%TO.P,J2,74*%
X-179750000Y-474850000D03*
%TO.P,J2,72*%
X-180250000Y-474850000D03*
%TO.P,J2,70*%
X-180750000Y-474850000D03*
%TO.P,J2,68*%
X-181250000Y-474850000D03*
%TO.P,J2,66*%
X-181750000Y-474850000D03*
%TO.P,J2,64*%
X-182250000Y-474850000D03*
%TO.P,J2,62*%
X-182750000Y-474850000D03*
%TO.P,J2,60*%
X-183250000Y-474850000D03*
%TO.P,J2,58*%
X-183750000Y-474850000D03*
%TO.P,J2,56*%
X-184250000Y-474850000D03*
%TO.P,J2,54*%
X-184750000Y-474850000D03*
%TO.P,J2,52*%
X-185250000Y-474850000D03*
%TO.P,J2,50*%
X-185750000Y-474850000D03*
%TO.P,J2,48*%
X-186250000Y-474850000D03*
%TO.P,J2,46*%
X-186750000Y-474850000D03*
%TO.P,J2,44*%
X-187250000Y-474850000D03*
%TO.P,J2,42*%
X-187750000Y-474850000D03*
%TO.P,J2,40*%
X-188250000Y-474850000D03*
%TO.P,J2,38*%
X-188750000Y-474850000D03*
%TO.P,J2,36*%
X-189250000Y-474850000D03*
%TO.P,J2,34*%
X-189750000Y-474850000D03*
%TO.P,J2,32*%
X-190250000Y-474850000D03*
%TO.P,J2,30*%
X-190750000Y-474850000D03*
%TO.P,J2,28*%
X-191250000Y-474850000D03*
%TO.P,J2,26*%
X-191750000Y-474850000D03*
%TO.P,J2,24*%
X-192250000Y-474850000D03*
%TO.P,J2,22*%
X-192750000Y-474850000D03*
%TO.P,J2,20*%
X-193250000Y-474850000D03*
%TO.P,J2,18*%
X-193750000Y-474850000D03*
%TO.P,J2,16*%
X-194250000Y-474850000D03*
%TO.P,J2,14*%
X-194750000Y-474850000D03*
%TO.P,J2,12*%
X-195250000Y-474850000D03*
%TO.P,J2,10*%
X-195750000Y-474850000D03*
%TO.P,J2,8*%
X-196250000Y-474850000D03*
%TO.P,J2,6*%
X-196750000Y-474850000D03*
%TO.P,J2,4*%
X-197250000Y-474850000D03*
%TO.P,J2,2*%
X-197750000Y-474850000D03*
%TO.P,J2,79*%
X-178250000Y-469350000D03*
%TO.P,J2,77*%
X-178750000Y-469350000D03*
%TO.P,J2,75*%
X-179250000Y-469350000D03*
%TO.P,J2,73*%
X-179750000Y-469350000D03*
%TO.P,J2,71*%
X-180250000Y-469350000D03*
%TO.P,J2,69*%
X-180750000Y-469350000D03*
%TO.P,J2,67*%
X-181250000Y-469350000D03*
%TO.P,J2,65*%
X-181750000Y-469350000D03*
%TO.P,J2,63*%
X-182250000Y-469350000D03*
%TO.P,J2,61*%
X-182750000Y-469350000D03*
%TO.P,J2,59*%
X-183250000Y-469350000D03*
%TO.P,J2,57*%
X-183750000Y-469350000D03*
%TO.P,J2,55*%
X-184250000Y-469350000D03*
%TO.P,J2,53*%
X-184750000Y-469350000D03*
%TO.P,J2,51*%
X-185250000Y-469350000D03*
%TO.P,J2,49*%
X-185750000Y-469350000D03*
%TO.P,J2,47*%
X-186250000Y-469350000D03*
%TO.P,J2,45*%
X-186750000Y-469350000D03*
%TO.P,J2,43*%
X-187250000Y-469350000D03*
%TO.P,J2,41*%
X-187750000Y-469350000D03*
%TO.P,J2,39*%
X-188250000Y-469350000D03*
%TO.P,J2,37*%
X-188750000Y-469350000D03*
%TO.P,J2,35*%
X-189250000Y-469350000D03*
%TO.P,J2,33*%
X-189750000Y-469350000D03*
%TO.P,J2,31*%
X-190250000Y-469350000D03*
%TO.P,J2,29*%
X-190750000Y-469350000D03*
%TO.P,J2,27*%
X-191250000Y-469350000D03*
%TO.P,J2,25*%
X-191750000Y-469350000D03*
%TO.P,J2,23*%
X-192250000Y-469350000D03*
%TO.P,J2,21*%
X-192750000Y-469350000D03*
%TO.P,J2,19*%
X-193250000Y-469350000D03*
%TO.P,J2,17*%
X-193750000Y-469350000D03*
%TO.P,J2,15*%
X-194250000Y-469350000D03*
%TO.P,J2,13*%
X-194750000Y-469350000D03*
%TO.P,J2,11*%
X-195250000Y-469350000D03*
%TO.P,J2,9*%
X-195750000Y-469350000D03*
%TO.P,J2,7*%
X-196250000Y-469350000D03*
%TO.P,J2,5*%
X-196750000Y-469350000D03*
%TO.P,J2,3*%
X-197250000Y-469350000D03*
%TO.P,J2,1*%
X-197750000Y-469350000D03*
%TD*%
D11*
%TO.N,*%
X-188000000Y-20000000D03*
X-188000000Y-30000000D03*
X-198800000Y-3900000D03*
X-198200000Y-4600000D03*
X-197600000Y-3900000D03*
X-197000000Y-4600000D03*
X-196400000Y-3900000D03*
X-195800000Y-4600000D03*
X-195200000Y-3900000D03*
X-194600000Y-4600000D03*
X-194000000Y-3900000D03*
X-193400000Y-4600000D03*
X-192800000Y-3900000D03*
X-192200000Y-4600000D03*
X-191600000Y-3900000D03*
X-191000000Y-4600000D03*
X-190400000Y-3900000D03*
X-189800000Y-4600000D03*
X-189200000Y-3900000D03*
X-188600000Y-4600000D03*
X-187400000Y-4600000D03*
X-186800000Y-3900000D03*
X-186200000Y-4600000D03*
X-185000000Y-4600000D03*
X-183800000Y-4600000D03*
X-182600000Y-4600000D03*
X-182000000Y-3900000D03*
X-181400000Y-4600000D03*
X-180800000Y-3900000D03*
X-180200000Y-4600000D03*
X-179600000Y-3900000D03*
X-179000000Y-4600000D03*
X-178400000Y-3900000D03*
X-177800000Y-4600000D03*
X-177200000Y-3900000D03*
X-189200000Y-2800000D03*
X-192800000Y-5300000D03*
X-188000000Y-2800000D03*
X-186800000Y-2800000D03*
X-183200000Y-5300000D03*
X-191600000Y-5300000D03*
X-190400000Y-5300000D03*
X-185600000Y-5300000D03*
X-184400000Y-5300000D03*
X-188000000Y-3900000D03*
X-185900000Y-2500000D03*
X-190100000Y-2500000D03*
X-188000000Y-410000000D03*
X-188000000Y-420000000D03*
X-188000000Y-430000000D03*
X-188000000Y-460000000D03*
X-188000000Y-450000000D03*
X-188000000Y-440000000D03*
X-188000000Y-400000000D03*
X-188000000Y-390000000D03*
X-188000000Y-380000000D03*
X-188000000Y-370000000D03*
X-188000000Y-360000000D03*
X-188000000Y-350000000D03*
X-188000000Y-340000000D03*
X-188000000Y-330000000D03*
X-188000000Y-320000000D03*
X-188000000Y-310000000D03*
X-188000000Y-300000000D03*
X-188000000Y-290000000D03*
X-188000000Y-280000000D03*
X-188000000Y-270000000D03*
X-188000000Y-260000000D03*
X-188000000Y-250000000D03*
X-188000000Y-240000000D03*
X-188000000Y-230000000D03*
X-188000000Y-220000000D03*
X-188000000Y-210000000D03*
X-188000000Y-200000000D03*
X-188000000Y-190000000D03*
X-188000000Y-180000000D03*
X-188000000Y-170000000D03*
X-188000000Y-160000000D03*
X-188000000Y-150000000D03*
X-188000000Y-140000000D03*
X-188000000Y-130000000D03*
X-188000000Y-120000000D03*
X-188000000Y-110000000D03*
X-188000000Y-100000000D03*
X-188000000Y-90000000D03*
X-188000000Y-80000000D03*
X-188000000Y-70000000D03*
X-188000000Y-60000000D03*
X-188000000Y-50000000D03*
X-188000000Y-40000000D03*
X-181200000Y-470600000D03*
X-178200000Y-470600000D03*
X-195300000Y-467300000D03*
X-195300000Y-369900000D03*
X-195300000Y-270000000D03*
X-195300000Y-170000000D03*
%TD*%
D12*
%TO.N,*%
X-188250000Y-8150000D02*
X-188250000Y-6750000D01*
X-188000000Y-8400000D02*
X-188250000Y-8150000D01*
D13*
X-192800000Y-20000000D02*
X-188000000Y-20000000D01*
X-192800000Y-30000000D02*
X-188000000Y-30000000D01*
X-183200000Y-40000000D02*
X-188000000Y-40000000D01*
X-192800000Y-50000000D02*
X-188000000Y-50000000D01*
X-192800000Y-60000000D02*
X-188000000Y-60000000D01*
X-192800000Y-70000000D02*
X-188000000Y-70000000D01*
X-192800000Y-80000000D02*
X-188000000Y-80000000D01*
X-192800000Y-90000000D02*
X-188000000Y-90000000D01*
X-192800000Y-100000000D02*
X-188000000Y-100000000D01*
X-192800000Y-110000000D02*
X-188000000Y-110000000D01*
X-192800000Y-120000000D02*
X-188000000Y-120000000D01*
X-192800000Y-130000000D02*
X-188000000Y-130000000D01*
X-192800000Y-140000000D02*
X-188000000Y-140000000D01*
X-192800000Y-150000000D02*
X-188000000Y-150000000D01*
X-183200000Y-180000000D02*
X-188000000Y-180000000D01*
X-192800000Y-230000000D02*
X-188000000Y-230000000D01*
X-192800000Y-160000000D02*
X-188000000Y-160000000D01*
X-192800000Y-210000000D02*
X-188000000Y-210000000D01*
X-192800000Y-220000000D02*
X-188000000Y-220000000D01*
X-192800000Y-250000000D02*
X-188000000Y-250000000D01*
X-192800000Y-190000000D02*
X-188200000Y-190000000D01*
X-192800000Y-240000000D02*
X-188000000Y-240000000D01*
X-192800000Y-170000000D02*
X-188000000Y-170000000D01*
X-192800000Y-200000000D02*
X-188000000Y-200000000D01*
X-192800000Y-270000000D02*
X-188000000Y-270000000D01*
X-192800000Y-290000000D02*
X-188000000Y-290000000D01*
X-192800000Y-280000000D02*
X-188000000Y-280000000D01*
X-192800000Y-260000000D02*
X-188000000Y-260000000D01*
X-183200000Y-310000000D02*
X-188000000Y-310000000D01*
X-192800000Y-360000000D02*
X-188000000Y-360000000D01*
X-192800000Y-340000000D02*
X-188000000Y-340000000D01*
X-192800000Y-350000000D02*
X-188000000Y-350000000D01*
X-192800000Y-380000000D02*
X-188000000Y-380000000D01*
X-192800000Y-320000000D02*
X-188000000Y-320000000D01*
X-192800000Y-370000000D02*
X-188000000Y-370000000D01*
X-192800000Y-300000000D02*
X-188000000Y-300000000D01*
X-192800000Y-330000000D02*
X-188000000Y-330000000D01*
X-192800000Y-400000000D02*
X-188000000Y-400000000D01*
X-192800000Y-420000000D02*
X-188200000Y-420000000D01*
X-192800000Y-460000000D02*
X-188100000Y-460000000D01*
X-183200000Y-450000000D02*
X-187900000Y-450000000D01*
X-192800000Y-430000000D02*
X-188000000Y-430000000D01*
X-192800000Y-410000000D02*
X-188000000Y-410000000D01*
X-192800000Y-440000000D02*
X-188200000Y-440000000D01*
X-192800000Y-390000000D02*
X-188000000Y-390000000D01*
D12*
X-188000000Y-8400000D02*
X-188000000Y-10000000D01*
X-187750000Y-8150000D02*
X-187750000Y-6750000D01*
X-188000000Y-8400000D02*
X-187750000Y-8150000D01*
D13*
X-192800000Y-10000000D02*
X-183200000Y-10000000D01*
X-188000000Y-20000000D02*
X-183200000Y-20000000D01*
X-188000000Y-30000000D02*
X-183200000Y-30000000D01*
D12*
X-198800000Y-2300000D02*
X-197750000Y-1250000D01*
X-198800000Y-3900000D02*
X-198800000Y-2300000D01*
X-177200000Y-2300000D02*
X-178250000Y-1250000D01*
X-177200000Y-3900000D02*
X-177200000Y-2300000D01*
X-197600000Y-3900000D02*
X-197600000Y-3600000D01*
X-197250000Y-3250000D02*
X-197250000Y-1250000D01*
X-197600000Y-3600000D02*
X-197250000Y-3250000D01*
X-196400000Y-3900000D02*
X-196800000Y-3500000D01*
X-196800000Y-1300000D02*
X-196750000Y-1250000D01*
X-196800000Y-3500000D02*
X-196800000Y-1300000D01*
X-195800000Y-4600000D02*
X-195800000Y-3300000D01*
X-196250000Y-2850000D02*
X-196250000Y-1250000D01*
X-195800000Y-3300000D02*
X-196250000Y-2850000D01*
X-195200000Y-3900000D02*
X-195200000Y-3300000D01*
X-195750000Y-2750000D02*
X-195750000Y-1250000D01*
X-195200000Y-3300000D02*
X-195750000Y-2750000D01*
X-194600000Y-4600000D02*
X-194600000Y-3200000D01*
X-195250000Y-2550000D02*
X-195250000Y-1250000D01*
X-194600000Y-3200000D02*
X-195250000Y-2550000D01*
X-194000000Y-3900000D02*
X-194000000Y-3300000D01*
X-194750000Y-2550000D02*
X-194750000Y-1250000D01*
X-194000000Y-3300000D02*
X-194750000Y-2550000D01*
X-193400000Y-4600000D02*
X-193400000Y-3400000D01*
X-194250000Y-2550000D02*
X-194250000Y-1250000D01*
X-193400000Y-3400000D02*
X-194250000Y-2550000D01*
X-192800000Y-3900000D02*
X-192800000Y-3500000D01*
X-193750000Y-2550000D02*
X-193750000Y-1250000D01*
X-192800000Y-3500000D02*
X-193750000Y-2550000D01*
X-192200000Y-4600000D02*
X-192200000Y-3600000D01*
X-193250000Y-2550000D02*
X-193250000Y-1250000D01*
X-192200000Y-3600000D02*
X-193250000Y-2550000D01*
X-191600000Y-3900000D02*
X-191600000Y-3700000D01*
X-192750000Y-2550000D02*
X-192750000Y-1250000D01*
X-191600000Y-3700000D02*
X-192750000Y-2550000D01*
X-192250000Y-2350000D02*
X-192250000Y-1250000D01*
X-191000000Y-3600000D02*
X-192250000Y-2350000D01*
X-191000000Y-4600000D02*
X-191000000Y-3600000D01*
X-190400000Y-3900000D02*
X-190400000Y-3700000D01*
X-191750000Y-2350000D02*
X-191750000Y-1250000D01*
X-190400000Y-3700000D02*
X-191750000Y-2350000D01*
X-188750000Y-4750000D02*
X-188750000Y-6750000D01*
X-188600000Y-4600000D02*
X-188750000Y-4750000D01*
X-187250000Y-4750000D02*
X-187250000Y-6750000D01*
X-187400000Y-4600000D02*
X-187250000Y-4750000D01*
X-189250000Y-5150000D02*
X-189250000Y-6750000D01*
X-189800000Y-4600000D02*
X-189250000Y-5150000D01*
X-186750000Y-5150000D02*
X-186750000Y-6750000D01*
X-186200000Y-4600000D02*
X-186750000Y-5150000D01*
X-178400000Y-3900000D02*
X-178600000Y-3700000D01*
X-178400000Y-3900000D02*
X-178400000Y-3700000D01*
X-178750000Y-3350000D02*
X-178750000Y-1250000D01*
X-178400000Y-3700000D02*
X-178750000Y-3350000D01*
X-179600000Y-3900000D02*
X-179200000Y-3500000D01*
X-179200000Y-1300000D02*
X-179250000Y-1250000D01*
X-179200000Y-3500000D02*
X-179200000Y-1300000D01*
X-180200000Y-4600000D02*
X-180200000Y-3400000D01*
X-179750000Y-2950000D02*
X-179750000Y-1250000D01*
X-180200000Y-3400000D02*
X-179750000Y-2950000D01*
X-180800000Y-3900000D02*
X-180800000Y-3500000D01*
X-180250000Y-2950000D02*
X-180250000Y-1250000D01*
X-180800000Y-3500000D02*
X-180250000Y-2950000D01*
X-181400000Y-4600000D02*
X-181400000Y-3600000D01*
X-180750000Y-2950000D02*
X-180750000Y-1250000D01*
X-181400000Y-3600000D02*
X-180750000Y-2950000D01*
X-182000000Y-3900000D02*
X-182000000Y-3700000D01*
X-181250000Y-2950000D02*
X-181250000Y-1250000D01*
X-182000000Y-3700000D02*
X-181250000Y-2950000D01*
X-182600000Y-4600000D02*
X-182600000Y-3700000D01*
X-181750000Y-2850000D02*
X-181750000Y-1250000D01*
X-182600000Y-3700000D02*
X-181750000Y-2850000D01*
X-183800000Y-4600000D02*
X-183800000Y-3600000D01*
X-183800000Y-3600000D02*
X-183500000Y-3300000D01*
X-183500000Y-3300000D02*
X-183200000Y-3300000D01*
X-182750000Y-2850000D02*
X-182750000Y-1250000D01*
X-183200000Y-3300000D02*
X-182750000Y-2850000D01*
X-185000000Y-4600000D02*
X-185000000Y-3600000D01*
X-185000000Y-3600000D02*
X-184700000Y-3300000D01*
X-184700000Y-3300000D02*
X-184500000Y-3300000D01*
X-183750000Y-2550000D02*
X-183750000Y-1250000D01*
X-184500000Y-3300000D02*
X-183750000Y-2550000D01*
X-189200000Y-3900000D02*
X-189500000Y-3900000D01*
X-191250000Y-2150000D02*
X-191250000Y-1250000D01*
X-189500000Y-3900000D02*
X-191250000Y-2150000D01*
X-186800000Y-3900000D02*
X-186100000Y-3200000D01*
X-186100000Y-3200000D02*
X-185600000Y-3200000D01*
X-184750000Y-2350000D02*
X-184750000Y-1250000D01*
X-185600000Y-3200000D02*
X-184750000Y-2350000D01*
X-195200000Y-6700000D02*
X-195250000Y-6750000D01*
X-192800000Y-5300000D02*
X-193300000Y-5800000D01*
X-193300000Y-6700000D02*
X-193250000Y-6750000D01*
X-193300000Y-5800000D02*
X-193300000Y-6700000D01*
X-190400000Y-5300000D02*
X-190100000Y-5300000D01*
X-189750000Y-5650000D02*
X-189750000Y-6750000D01*
X-190100000Y-5300000D02*
X-189750000Y-5650000D01*
X-191600000Y-5300000D02*
X-191100000Y-5800000D01*
X-191100000Y-5800000D02*
X-191000000Y-5800000D01*
X-190750000Y-6050000D02*
X-190750000Y-6750000D01*
X-191000000Y-5800000D02*
X-190750000Y-6050000D01*
X-186250000Y-5950000D02*
X-186250000Y-6750000D01*
X-185600000Y-5300000D02*
X-186250000Y-5950000D01*
X-185250000Y-6150000D02*
X-185250000Y-6750000D01*
X-184400000Y-5300000D02*
X-185250000Y-6150000D01*
X-183200000Y-5300000D02*
X-182800000Y-5700000D01*
X-182800000Y-6700000D02*
X-182750000Y-6750000D01*
X-182800000Y-5700000D02*
X-182800000Y-6700000D01*
X-180800000Y-6700000D02*
X-180750000Y-6750000D01*
X-188000000Y-2800000D02*
X-188000000Y-2600000D01*
X-188250000Y-2350000D02*
X-188250000Y-1250000D01*
X-188000000Y-2600000D02*
X-188250000Y-2350000D01*
X-188000000Y-3900000D02*
X-187400000Y-3300000D01*
X-187400000Y-3300000D02*
X-187400000Y-2400000D01*
X-187750000Y-2050000D02*
X-187750000Y-1250000D01*
X-187400000Y-2400000D02*
X-187750000Y-2050000D01*
X-186800000Y-1300000D02*
X-186750000Y-1250000D01*
X-186800000Y-2800000D02*
X-186800000Y-1300000D01*
X-189200000Y-1300000D02*
X-189250000Y-1250000D01*
X-189200000Y-2800000D02*
X-189200000Y-1300000D01*
X-185900000Y-2500000D02*
X-185900000Y-2200000D01*
X-185750000Y-2050000D02*
X-185750000Y-1250000D01*
X-185900000Y-2200000D02*
X-185750000Y-2050000D01*
X-190100000Y-2500000D02*
X-190100000Y-2300000D01*
X-190250000Y-2150000D02*
X-190250000Y-1250000D01*
X-190100000Y-2300000D02*
X-190250000Y-2150000D01*
D14*
X-195300000Y-9100000D02*
X-195300000Y-170000000D01*
D12*
X-195300000Y-9100000D02*
X-195300000Y-8900000D01*
X-197750000Y-469350000D02*
X-196750000Y-469350000D01*
X-195750000Y-469350000D02*
X-194750000Y-469350000D01*
X-179250000Y-469350000D02*
X-178250000Y-469350000D01*
X-180250000Y-469350000D02*
X-181250000Y-469350000D01*
X-197250000Y-468350000D02*
X-197250000Y-469350000D01*
X-198300000Y-467300000D02*
X-197250000Y-468350000D01*
X-180700000Y-469300000D02*
X-180750000Y-469350000D01*
X-180700000Y-467100000D02*
X-180700000Y-469300000D01*
X-178750000Y-468150000D02*
X-178750000Y-469350000D01*
X-177800000Y-467200000D02*
X-178750000Y-468150000D01*
D13*
X-188100000Y-460000000D02*
X-188000000Y-460000000D01*
X-187900000Y-450000000D02*
X-188000000Y-450000000D01*
X-188200000Y-440000000D02*
X-188000000Y-440000000D01*
X-187900000Y-430000000D02*
X-183200000Y-430000000D01*
X-188200000Y-420000000D02*
X-188000000Y-420000000D01*
X-188000000Y-410000000D02*
X-183200000Y-410000000D01*
X-188000000Y-420000000D02*
X-183200000Y-420000000D01*
X-188000000Y-430000000D02*
X-187900000Y-430000000D01*
X-188000000Y-460000000D02*
X-183200000Y-460000000D01*
X-188000000Y-450000000D02*
X-192800000Y-450000000D01*
X-188000000Y-440000000D02*
X-183200000Y-440000000D01*
X-188000000Y-400000000D02*
X-183200000Y-400000000D01*
X-188000000Y-390000000D02*
X-183200000Y-390000000D01*
X-188000000Y-380000000D02*
X-183200000Y-380000000D01*
X-188000000Y-370000000D02*
X-183200000Y-370000000D01*
X-188000000Y-360000000D02*
X-183200000Y-360000000D01*
X-188000000Y-350000000D02*
X-183200000Y-350000000D01*
X-188000000Y-340000000D02*
X-183200000Y-340000000D01*
X-188000000Y-330000000D02*
X-183200000Y-330000000D01*
X-188000000Y-320000000D02*
X-183200000Y-320000000D01*
X-188000000Y-310000000D02*
X-192800000Y-310000000D01*
X-188000000Y-300000000D02*
X-183200000Y-300000000D01*
X-188000000Y-290000000D02*
X-183200000Y-290000000D01*
X-188000000Y-280000000D02*
X-183200000Y-280000000D01*
X-188000000Y-270000000D02*
X-183200000Y-270000000D01*
X-188000000Y-260000000D02*
X-183200000Y-260000000D01*
X-188000000Y-250000000D02*
X-183200000Y-250000000D01*
X-188000000Y-240000000D02*
X-183200000Y-240000000D01*
X-188000000Y-230000000D02*
X-183200000Y-230000000D01*
X-188000000Y-220000000D02*
X-183200000Y-220000000D01*
X-188000000Y-210000000D02*
X-183200000Y-210000000D01*
X-188000000Y-200000000D02*
X-183200000Y-200000000D01*
X-188200000Y-190000000D02*
X-183200000Y-190000000D01*
X-188000000Y-180000000D02*
X-192800000Y-180000000D01*
X-188000000Y-170000000D02*
X-183200000Y-170000000D01*
X-188000000Y-160000000D02*
X-183200000Y-160000000D01*
X-188000000Y-150000000D02*
X-183200000Y-150000000D01*
X-188000000Y-140000000D02*
X-183200000Y-140000000D01*
X-188000000Y-130000000D02*
X-183200000Y-130000000D01*
X-188000000Y-120000000D02*
X-183200000Y-120000000D01*
X-188000000Y-110000000D02*
X-183200000Y-110000000D01*
X-188000000Y-100000000D02*
X-183200000Y-100000000D01*
X-188000000Y-90000000D02*
X-183200000Y-90000000D01*
X-188000000Y-80000000D02*
X-183200000Y-80000000D01*
X-188000000Y-70000000D02*
X-183200000Y-70000000D01*
X-188000000Y-60000000D02*
X-183200000Y-60000000D01*
X-188000000Y-50000000D02*
X-183200000Y-50000000D01*
X-188000000Y-40000000D02*
X-192800000Y-40000000D01*
D12*
X-180750000Y-470150000D02*
X-181200000Y-470600000D01*
X-180750000Y-469350000D02*
X-180750000Y-470150000D01*
X-178750000Y-470050000D02*
X-178200000Y-470600000D01*
X-178750000Y-469350000D02*
X-178750000Y-470050000D01*
D14*
X-195300000Y-190000000D02*
X-195300000Y-269900000D01*
X-195300000Y-269900000D02*
X-195300000Y-270000000D01*
X-198300000Y-467300000D02*
X-198300000Y-9000000D01*
X-180700000Y-467300000D02*
X-180700000Y-9000000D01*
X-177700000Y-467300000D02*
X-177700000Y-9000000D01*
D12*
X-195300000Y-469300000D02*
X-195250000Y-469350000D01*
D14*
X-195300000Y-390000000D02*
X-195300000Y-467300000D01*
D12*
X-195250000Y-467350000D02*
X-195300000Y-467300000D01*
X-195250000Y-469350000D02*
X-195250000Y-467350000D01*
X-195300000Y-467300000D02*
X-195300000Y-467300000D01*
D14*
X-195300000Y-369900000D02*
X-195300000Y-390000000D01*
X-195300000Y-270000000D02*
X-195300000Y-369900000D01*
X-195300000Y-170000000D02*
X-195300000Y-190000000D01*
D12*
X-197750000Y-6750000D02*
X-196750000Y-6750000D01*
X-195750000Y-6750000D02*
X-194750000Y-6750000D01*
X-195300000Y-6800000D02*
X-195250000Y-6750000D01*
X-195300000Y-9100000D02*
X-195300000Y-6800000D01*
X-197000000Y-4600000D02*
X-196300000Y-5300000D01*
X-196300000Y-5300000D02*
X-194100000Y-5300000D01*
X-193750000Y-5650000D02*
X-193750000Y-6750000D01*
X-194100000Y-5300000D02*
X-193750000Y-5650000D01*
X-198200000Y-4600000D02*
X-197000000Y-5800000D01*
X-197000000Y-5800000D02*
X-194400000Y-5800000D01*
X-194250000Y-5950000D02*
X-194250000Y-6750000D01*
X-194400000Y-5800000D02*
X-194250000Y-5950000D01*
X-197250000Y-7950000D02*
X-198300000Y-9000000D01*
X-197250000Y-6750000D02*
X-197250000Y-7950000D01*
X-179250000Y-6750000D02*
X-178250000Y-6750000D01*
X-181250000Y-6750000D02*
X-180250000Y-6750000D01*
X-180700000Y-6800000D02*
X-180750000Y-6750000D01*
X-180700000Y-9000000D02*
X-180700000Y-6800000D01*
X-178750000Y-7950000D02*
X-178750000Y-6750000D01*
X-177700000Y-9000000D02*
X-178750000Y-7950000D01*
X-179000000Y-4600000D02*
X-179700000Y-5300000D01*
X-179700000Y-5300000D02*
X-182200000Y-5300000D01*
X-182250000Y-5350000D02*
X-182250000Y-6750000D01*
X-182200000Y-5300000D02*
X-182250000Y-5350000D01*
X-177800000Y-4600000D02*
X-179000000Y-5800000D01*
X-179000000Y-5800000D02*
X-181600000Y-5800000D01*
X-181750000Y-5950000D02*
X-181750000Y-6750000D01*
X-181600000Y-5800000D02*
X-181750000Y-5950000D01*
%TD*%
M02*
